<?xml version="1.0" encoding="UTF-8"?>
<svg width="351px" height="116px" viewBox="0 0 351 116" version="1.1" xmlns="http://www.w3.org/2000/svg" xmlns:xlink="http://www.w3.org/1999/xlink">
    <!-- Generator: Sketch 59.1 (86144) - https://sketch.com -->
    <title>编组</title>
    <desc>Created with Sketch.</desc>
    <defs>
        <path d="M215,0 L215,3 L215,3 C213.343146,3 212,4.34314575 212,6 C212,7.65685425 213.343146,9 215,9 L215,14 L215,14 C213.343146,14 212,15.3431458 212,17 C212,18.6568542 213.343146,20 215,20 L215,25 L215,25 C213.343146,25 212,26.3431458 212,28 C212,29.6568542 213.343146,31 215,31 L215,40 L215,40 C209.477153,40 205,44.4771525 205,50 C205,55.5228475 209.477153,60 215,60 L215,69 L215,69 C213.343146,69 212,70.3431458 212,72 C212,73.6568542 213.343146,75 215,75 L215,80 L215,80 C213.343146,80 212,81.3431458 212,83 C212,84.6568542 213.343146,86 215,86 L215,91 L215,91 C213.343146,91 212,92.3431458 212,94 C212,95.6568542 213.343146,97 215,97 L215,100 L0,100 L0,97 C1.65685425,97 3,95.6568542 3,94 C3,92.3431458 1.65685425,91 0,91 L0,86 C1.65685425,86 3,84.6568542 3,83 C3,81.3431458 1.65685425,80 0,80 L0,75 C1.65685425,75 3,73.6568542 3,72 C3,70.3431458 1.65685425,69 0,69 L0,60 C5.5228475,60 10,55.5228475 10,50 C10,44.4771525 5.5228475,40 0,40 L0,31 C1.65685425,31 3,29.6568542 3,28 C3,26.3431458 1.65685425,25 0,25 L0,20 C1.65685425,20 3,18.6568542 3,17 C3,15.3431458 1.65685425,14 0,14 L0,9 C1.65685425,9 3,7.65685425 3,6 C3,4.34314575 1.65685425,3 0,3 L0,0 L215,0 Z" id="path-1"></path>
        <filter x="-5.6%" y="-12.0%" width="111.2%" height="124.0%" filterUnits="objectBoundingBox" id="filter-2">
            <feOffset dx="0" dy="0" in="SourceAlpha" result="shadowOffsetOuter1"></feOffset>
            <feGaussianBlur stdDeviation="4" in="shadowOffsetOuter1" result="shadowBlurOuter1"></feGaussianBlur>
            <feColorMatrix values="0 0 0 0 0.81603827   0 0 0 0 0.81603827   0 0 0 0 0.81603827  0 0 0 0.5 0" type="matrix" in="shadowBlurOuter1"></feColorMatrix>
        </filter>
        <path d="M335,0 L335,3 L335,3 C333.343146,3 332,4.34314575 332,6 C332,7.65685425 333.343146,9 335,9 L335,14 L335,14 C333.343146,14 332,15.3431458 332,17 C332,18.6568542 333.343146,20 335,20 L335,25 L335,25 C333.343146,25 332,26.3431458 332,28 C332,29.6568542 333.343146,31 335,31 L335,40 L335,40 C329.477153,40 325,44.4771525 325,50 C325,55.5228475 329.477153,60 335,60 L335,69 L335,69 C333.343146,69 332,70.3431458 332,72 C332,73.6568542 333.343146,75 335,75 L335,80 L335,80 C333.343146,80 332,81.3431458 332,83 C332,84.6568542 333.343146,86 335,86 L335,91 L335,91 C333.343146,91 332,92.3431458 332,94 C332,95.6568542 333.343146,97 335,97 L335,100 L215,100 L215,97 C216.656854,97 218,95.6568542 218,94 C218,92.3431458 216.656854,91 215,91 L215,86 C216.656854,86 218,84.6568542 218,83 C218,81.3431458 216.656854,80 215,80 L215,75 C216.656854,75 218,73.6568542 218,72 C218,70.3431458 216.656854,69 215,69 L215,60 C220.522847,60 225,55.5228475 225,50 C225,44.4771525 220.522847,40 215,40 L215,31 C216.656854,31 218,29.6568542 218,28 C218,26.3431458 216.656854,25 215,25 L215,20 C216.656854,20 218,18.6568542 218,17 C218,15.3431458 216.656854,14 215,14 L215,9 C216.656854,9 218,7.65685425 218,6 C218,4.34314575 216.656854,3 215,3 L215,0 L335,0 Z" id="path-3"></path>
        <filter x="-10.0%" y="-12.0%" width="120.0%" height="124.0%" filterUnits="objectBoundingBox" id="filter-4">
            <feOffset dx="0" dy="0" in="SourceAlpha" result="shadowOffsetOuter1"></feOffset>
            <feGaussianBlur stdDeviation="4" in="shadowOffsetOuter1" result="shadowBlurOuter1"></feGaussianBlur>
            <feColorMatrix values="0 0 0 0 0.81603827   0 0 0 0 0.81603827   0 0 0 0 0.81603827  0 0 0 0.5 0" type="matrix" in="shadowBlurOuter1"></feColorMatrix>
        </filter>
    </defs>
    <g id="页面1" stroke="none" stroke-width="1" fill="none" fill-rule="evenodd">
        <g id="优惠券" transform="translate(-13.000000, -197.000000)">
            <g id="编组" transform="translate(21.000000, 205.000000)">
                <g id="形状结合备份-6">
                    <use fill="black" fill-opacity="1" filter="url(#filter-2)" xlink:href="#path-1"></use>
                    <use fill="#FFFFFF" fill-rule="evenodd" xlink:href="#path-1"></use>
                </g>
                <g id="形状结合备份-8">
                    <use fill="black" fill-opacity="1" filter="url(#filter-4)" xlink:href="#path-3"></use>
                    <use fill="#EB4D50" fill-rule="evenodd" xlink:href="#path-3"></use>
                </g>
                <path d="M328.700002,6.3 L221.299998,6.3 L221.29981,41.8506176 C223.802296,43.7874219 225.3,46.7695216 225.3,50 C225.3,53.2304784 223.802296,56.2125781 221.29981,58.1493824 L221.299998,93.7 L328.700002,93.7 L328.700239,58.1494201 C326.197724,56.2126176 324.7,53.2305001 324.7,50 C324.7,46.7694999 326.197724,43.7873824 328.700239,41.8505799 L328.700002,6.3 Z" id="形状结合备份-10" stroke="#EF2125" stroke-width="0.6"></path>
                <path d="M208.700002,6.3 L6.29999841,6.3 L6.29980981,41.8506176 C8.80229645,43.7874219 10.3,46.7695216 10.3,50 C10.3,53.2304784 8.80229645,56.2125781 6.29980981,58.1493824 L6.29999841,93.7 L208.700002,93.7 L208.700239,58.1494201 C206.197724,56.2126176 204.7,53.2305001 204.7,50 C204.7,46.7694999 206.197724,43.7873824 208.700239,41.8505799 L208.700002,6.3 Z" id="形状结合备份-12" stroke="#FFE7E9" stroke-width="0.6"></path>
                <line x1="6" y1="70" x2="209" y2="70" id="直线复制-2备份-4" stroke="#FFE7E9" stroke-width="0.6" stroke-linecap="square" stroke-dasharray="2"></line>
            </g>
        </g>
    </g>
</svg>