<?xml version="1.0" encoding="UTF-8"?>
<svg width="351px" height="116px" viewBox="0 0 351 116" version="1.1" xmlns="http://www.w3.org/2000/svg" xmlns:xlink="http://www.w3.org/1999/xlink">
    <!-- Generator: Sketch 59.1 (86144) - https://sketch.com -->
    <title>编组</title>
    <desc>Created with Sketch.</desc>
    <defs>
        <path d="M215,0 L215,3 L215,3 C213.343146,3 212,4.34314575 212,6 C212,7.65685425 213.343146,9 215,9 L215,14 L215,14 C213.343146,14 212,15.3431458 212,17 C212,18.6568542 213.343146,20 215,20 L215,25 L215,25 C213.343146,25 212,26.3431458 212,28 C212,29.6568542 213.343146,31 215,31 L215,40 L215,40 C209.477153,40 205,44.4771525 205,50 C205,55.5228475 209.477153,60 215,60 L215,69 L215,69 C213.343146,69 212,70.3431458 212,72 C212,73.6568542 213.343146,75 215,75 L215,80 L215,80 C213.343146,80 212,81.3431458 212,83 C212,84.6568542 213.343146,86 215,86 L215,91 L215,91 C213.343146,91 212,92.3431458 212,94 C212,95.6568542 213.343146,97 215,97 L215,100 L0,100 L0,97 C1.65685425,97 3,95.6568542 3,94 C3,92.3431458 1.65685425,91 0,91 L0,86 C1.65685425,86 3,84.6568542 3,83 C3,81.3431458 1.65685425,80 0,80 L0,75 C1.65685425,75 3,73.6568542 3,72 C3,70.3431458 1.65685425,69 0,69 L0,60 C5.5228475,60 10,55.5228475 10,50 C10,44.4771525 5.5228475,40 0,40 L0,31 C1.65685425,31 3,29.6568542 3,28 C3,26.3431458 1.65685425,25 0,25 L0,20 C1.65685425,20 3,18.6568542 3,17 C3,15.3431458 1.65685425,14 0,14 L0,9 C1.65685425,9 3,7.65685425 3,6 C3,4.34314575 1.65685425,3 0,3 L0,0 L215,0 Z" id="path-1"></path>
        <filter x="-5.6%" y="-12.0%" width="111.2%" height="124.0%" filterUnits="objectBoundingBox" id="filter-2">
            <feOffset dx="0" dy="0" in="SourceAlpha" result="shadowOffsetOuter1"></feOffset>
            <feGaussianBlur stdDeviation="4" in="shadowOffsetOuter1" result="shadowBlurOuter1"></feGaussianBlur>
            <feColorMatrix values="0 0 0 0 0.81603827   0 0 0 0 0.81603827   0 0 0 0 0.81603827  0 0 0 0.5 0" type="matrix" in="shadowBlurOuter1"></feColorMatrix>
        </filter>
        <path d="M335,0 L335,3 L335,3 C333.343146,3 332,4.34314575 332,6 C332,7.65685425 333.343146,9 335,9 L335,14 L335,14 C333.343146,14 332,15.3431458 332,17 C332,18.6568542 333.343146,20 335,20 L335,25 L335,25 C333.343146,25 332,26.3431458 332,28 C332,29.6568542 333.343146,31 335,31 L335,40 L335,40 C329.477153,40 325,44.4771525 325,50 C325,55.5228475 329.477153,60 335,60 L335,69 L335,69 C333.343146,69 332,70.3431458 332,72 C332,73.6568542 333.343146,75 335,75 L335,80 L335,80 C333.343146,80 332,81.3431458 332,83 C332,84.6568542 333.343146,86 335,86 L335,91 L335,91 C333.343146,91 332,92.3431458 332,94 C332,95.6568542 333.343146,97 335,97 L335,100 L215,100 L215,97 C216.656854,97 218,95.6568542 218,94 C218,92.3431458 216.656854,91 215,91 L215,86 C216.656854,86 218,84.6568542 218,83 C218,81.3431458 216.656854,80 215,80 L215,75 C216.656854,75 218,73.6568542 218,72 C218,70.3431458 216.656854,69 215,69 L215,60 C220.522847,60 225,55.5228475 225,50 C225,44.4771525 220.522847,40 215,40 L215,31 C216.656854,31 218,29.6568542 218,28 C218,26.3431458 216.656854,25 215,25 L215,20 C216.656854,20 218,18.6568542 218,17 C218,15.3431458 216.656854,14 215,14 L215,9 C216.656854,9 218,7.65685425 218,6 C218,4.34314575 216.656854,3 215,3 L215,0 L335,0 Z" id="path-3"></path>
        <filter x="-10.0%" y="-12.0%" width="120.0%" height="124.0%" filterUnits="objectBoundingBox" id="filter-4">
            <feOffset dx="0" dy="0" in="SourceAlpha" result="shadowOffsetOuter1"></feOffset>
            <feGaussianBlur stdDeviation="4" in="shadowOffsetOuter1" result="shadowBlurOuter1"></feGaussianBlur>
            <feColorMatrix values="0 0 0 0 0.81603827   0 0 0 0 0.81603827   0 0 0 0 0.81603827  0 0 0 0.5 0" type="matrix" in="shadowBlurOuter1"></feColorMatrix>
        </filter>
    </defs>
    <g id="页面1" stroke="none" stroke-width="1" fill="none" fill-rule="evenodd">
        <g id="优惠券-已过期" transform="translate(-12.000000, -117.000000)">
            <g id="编组" transform="translate(20.000000, 125.000000)">
                <g id="形状结合备份-7">
                    <use fill="black" fill-opacity="1" filter="url(#filter-2)" xlink:href="#path-1"></use>
                    <use fill="#FFFFFF" fill-rule="evenodd" xlink:href="#path-1"></use>
                </g>
                <g id="形状结合备份-9">
                    <use fill="black" fill-opacity="1" filter="url(#filter-4)" xlink:href="#path-3"></use>
                    <use fill="#BBBBBB" fill-rule="evenodd" xlink:href="#path-3"></use>
                </g>
                <line x1="6" y1="70" x2="209" y2="70" id="直线复制-2备份-5" stroke="#EDEDED" stroke-width="0.6" stroke-linecap="square" stroke-dasharray="2"></line>
                <path d="M328.700002,6.3 L221.299998,6.3 L221.29981,41.8506176 C223.802296,43.7874219 225.3,46.7695216 225.3,50 C225.3,53.2304784 223.802296,56.2125781 221.29981,58.1493824 L221.299998,93.7 L328.700002,93.7 L328.700239,58.1494201 C326.197724,56.2126176 324.7,53.2305001 324.7,50 C324.7,46.7694999 326.197724,43.7873824 328.700239,41.8505799 L328.700002,6.3 Z" id="形状结合备份-11" stroke="#D4D4D4" stroke-width="0.6"></path>
                <path d="M208.700002,6.3 L6.29999841,6.3 L6.29980981,41.8506176 C8.80229645,43.7874219 10.3,46.7695216 10.3,50 C10.3,53.2304784 8.80229645,56.2125781 6.29980981,58.1493824 L6.29999841,93.7 L208.700002,93.7 L208.700239,58.1494201 C206.197724,56.2126176 204.7,53.2305001 204.7,50 C204.7,46.7694999 206.197724,43.7873824 208.700239,41.8505799 L208.700002,6.3 Z" id="形状结合备份-13" stroke="#EDEDED" stroke-width="0.6"></path>
                <g id="编组-20备份" transform="translate(245.000000, 10.000000)" fill="#FFFFFF">
                    <path d="M30,29.9292453 C30.3539637,29.9707231 30.6892283,30.0178592 31,30.0707547 C30.2099026,30.0707547 30.1574928,30.0707547 30,29.9292453 Z" id="Fill-1"></path>
                    <path d="M30.987849,30.8919759 C30.6906675,30.4460218 30.987849,30.1756236 30.6496044,30 C30.5352841,30.141283 30.3858475,30.2228757 30.2294901,30.2297708 C30.3113598,30.3918745 30.3113598,30.675725 30.4036876,30.7837491 C30.065443,30.8919759 29.8091194,30.1217468 30.1884271,31 C30.3113598,30.8919759 30.5266716,30.8919759 30.7110708,30.675725 C30.7110708,30.7567769 31.0697188,31.0541472 30.987849,30.8919759 Z" id="Fill-2"></path>
                    <path d="M36.5206612,9.32329117 L36.2396694,9.32329117 L36.5206612,9.32329117 Z M25.5915254,7.60006459 L25.9032003,8.4375 C26.5115565,8.16891697 26.8676185,8.4375 27.1198384,7.91613759 C27.5501264,8.50047755 28.3364765,8.10562335 28.9745972,8.10562335 C28.9745972,8.10562335 28.6034673,7.78955035 28.7818324,7.66335821 C29.0932104,7.78955035 29.2712043,7.66335821 29.3306593,7.91613759 C28.9003713,8.10562335 29.0189844,7.78955035 28.8409905,7.91613759 C29.0189844,8.35848175 29.5087274,8.35848175 30.0578512,8.10562335 C30.0134641,7.93494393 30.0134641,7.75501938 30.0578512,7.58433996 C29.8795604,7.58433996 29.8795604,7.58433996 29.7609473,7.45806879 L29.5681082,7 C29.4005802,7.18340136 29.1703312,7.28675723 28.9299874,7.28675723 C28.6895695,7.28675723 28.4596916,7.18340136 28.2920893,7 C28.1140954,7 28.1731793,7.33156058 28.1731793,7.33156058 C28.0546404,6.93670638 27.5054424,7.33156058 27.3869035,7.58433996 C27.3869035,7.01572463 26.7191665,7.97911513 26.3184205,7.91613759 C26.1702654,7.55281168 26.0514296,7.55281168 26.0514296,7.42630346 C26.0514296,7.30003229 25.7843645,7.30003229 25.5619835,7.60006459 L25.5915254,7.60006459 Z M29.736118,7.575 C29.736118,7.575 29.8277864,7.78964102 29.736118,7.85530368 C29.6392392,7.88566029 29.5405855,7.81793536 29.4958678,7.69065208 L29.736118,7.575 Z M31.4578,7 C31.0658616,7.15968226 31.0117731,7 30.6198347,7.15968226 C30.7819648,7.54570312 31.0658616,7.15968226 31.0117731,7.65237993 L30.6739232,7.75872378 L30.8361209,8.13149328 C31.1200176,8.23790373 30.9441626,7.86513422 31.2280593,7.53245176 C31.3901895,7.91847263 31.7279718,7.75872378 32.0118686,7.86513422 C32.1199103,7.58579016 31.5119561,7.63879561 31.6199978,7.37270291 C31.6199978,7.37270291 31.4578,7.37270291 31.4578,7 Z M25.2809917,7.8625 C24.8253247,7.9822504 25.0765429,8.295829 25.0138955,8.4155794 C25.0728485,8.44480687 25.1431204,8.44480687 25.2023878,8.4155794 C25.2023878,8.2362528 25.3436391,8.11657716 25.2023878,7.93725056 L25.2809917,7.8625 Z M56.6329367,22.6348976 C56.6662248,23.159725 56.803854,23.6713941 57.0371593,24.1380994 C57.2238902,24.0026819 57.4785692,24.0350137 57.6289071,24.2132896 C57.4556791,24.3334435 57.325704,24.1380994 57.0371593,24.4535222 C57.2825234,25.0700815 57.0371593,25.5358846 57.3400735,26.152068 C57.6432765,26.152068 57.8165045,26.0319142 57.9318213,26.152068 C57.7586655,26.2725227 57.9318213,26.4677916 57.9318213,26.7682515 C57.1524761,27.1292394 57.5132292,27.9108412 57.8599017,28.767558 C57.5710681,29.0231294 58.105338,29.3838166 57.6289071,29.5038953 C57.8599017,29.8196188 57.9318213,29.5038953 58.0474991,29.6842765 C57.9318213,29.7594667 58.0474991,29.9397727 58.0474991,30 C58.2928632,30 58.6392469,29.3838166 58.8846832,29.6393128 C58.8937092,29.4290059 58.9326296,29.2213306 59,29.0231294 C58.8268443,29.1432081 58.6970858,29.2633619 58.5238579,29.1432081 L58.8268443,28.8877119 C58.8586882,27.7445958 58.7763706,26.6011789 58.581408,25.4756573 C57.9896602,25.7161906 58.3507021,24.8594739 57.7586655,24.73932 C57.9318213,24.6189405 57.7586655,24.4235965 57.9318213,24.3034426 C58.0474991,24.7992466 58.1628159,24.6189405 58.5238579,24.3034426 C58.2333635,24.0370439 58.1399981,23.606505 58.2928632,23.2361182 C58.2339412,23.3142408 58.1428142,23.3589037 58.0474991,23.3564977 C57.9318213,23.160928 58.0474991,23.0407741 58.4082522,22.8002408 C58.077971,22.2172163 57.8393223,21.5831376 57.7011154,20.9213889 C57.3979124,21.1768851 57.7011154,21.5375723 57.4556791,21.658027 C57.2246845,21.3422283 57.4556791,21.3422283 57.3400735,21.1619223 C57.1722612,21.1304928 56.9993221,21.1739527 56.8639314,21.2823769 C56.7372778,20.9704129 56.8633537,20.6097257 57.1524761,20.4555107 L57.2825234,20.4555107 C57.2436031,20.4952111 57.2218684,20.5492728 57.2218684,20.605891 C57.2218684,20.6622836 57.2436031,20.7166461 57.2825234,20.7560457 C57.5854376,20.515738 57.4556791,20.3351312 57.6432765,20.2149773 C57.2246845,20.0197084 57.3979124,19.5987939 57.1668456,19.2231438 C56.8639314,19.47864 56.6904868,19.3432225 56.5750978,19.47864 C56.5750978,19.1629165 56.5750978,19.1629165 56.9214814,18.9223832 L56.6904868,18.5467331 C56.9793204,18.5467331 56.8639314,18.4262784 56.9793204,18.3061246 C56.595966,17.7736278 56.2986841,17.1794751 56.098739,16.5474266 C55.9111416,16.667806 55.6223081,16.667806 55.5069191,16.8029227 L55.2615549,16.4875 L54.785124,16.9084146 C55.0305603,17.2238373 55.203716,17.1036834 55.3193939,17.2840646 L55.0161186,17.5395608 C55.6276515,18.7490698 56.1116643,20.0240695 56.459781,21.3422283 L56.6329367,21.2221496 C56.3297337,21.4776458 57.0515288,21.7181791 56.6329367,21.838333 C56.7457262,21.9358546 56.8518003,22.0412713 56.9505092,22.1540565 C57.0224288,22.0639035 57.0658982,21.9737505 57.1524761,22.1540565 L57.2678651,22.3344377 C57.1753661,22.3728599 57.0721081,22.3728599 56.9793204,22.3344377 L56.9793204,22.6348976 L56.6329367,22.6348976 Z M57.6929799,25.1261318 L57.8760331,25.399863 L57.6357579,25.6875 C57.6357579,25.3862312 57.5441455,25.2218966 57.6357579,25.1125 L57.6929799,25.1261318 Z M56.0481422,19.65 C55.9535548,19.4409329 55.8469515,19.28398 55.9535548,19.075 C55.9847485,19.1219726 56.027307,19.148204 56.0719371,19.148204 C56.1163305,19.148204 56.1591257,19.1219726 56.1900826,19.075 C56.0954952,19.1968324 56.1900826,19.4058995 56.0481422,19.5454229 L56.0481422,19.65 Z M55.6466784,18.7875 C55.5278269,18.2969596 56.0037534,18.2373717 56.3753316,17.925 C56.7321091,18.4009595 56.0037534,18.5198378 55.6318777,18.7578176 L55.6466784,18.7875 Z M57.0376602,23.3828887 C57.1463478,23.6200294 57.4864217,23.23697 57.5950413,23.3828887 L57.2552395,23.675 C57.2552395,23.2915754 56.9696454,23.675 56.7520661,23.23697 C56.9425755,23.0543433 56.9425755,23.0543433 57.0376602,23.23697 L57.0376602,23.3828887 Z" id="Fill-3"></path>
                    <path d="M27.7415509,7.75 L27.7415509,7.5 C27.7302709,7.58266533 27.7302709,7.66733467 27.7415509,7.75 Z M25.3337979,8.88586976 C25.7463652,8.77856079 26.1446986,8.68441363 26.5714286,8.60389833 L26.2584269,8 C25.5620372,8.18728705 24.8539758,8.33529015 24.1386552,8.44280057 C24.024927,8.724772 24.1386552,8.88586976 23.7260879,9.04690035 L23.5553533,8.67105037 L23.1428571,8.83208097 C23.498418,9.1140524 23.1428571,8.99311157 23.3135206,9.22136136 C23.498418,9.22136136 24.0107643,9.38266057 24.0819334,8.93965854 C24.4374943,9.22136136 25.106128,8.77856079 25.3337979,8.93965854 L25.3337979,8.88586976 Z M25.6439171,8.25515311 L25.7142857,8.39995394 C25.6013851,8.65350637 25.1352991,8.60519916 25.1918907,8.75 C24.9939966,8.50870553 25.4460231,8.20678552 25.6439171,8.25515311 Z M34.4914694,7.63353433 C34.0858862,7.79100191 33.8620703,7.26593487 33.4285714,7.63353433 C33.7781132,7.90926675 33.9459576,7.85666812 34.2397377,7.96186539 C34.1279348,8.27680054 33.9459576,8.32939918 34.001999,8.5 C34.2903219,8.35533733 34.6365753,8.35533733 34.9251782,8.5 C34.9997601,8.29196944 35.1962899,8.14343247 35.4285714,8.11933297 C35.1487142,8.01413569 35.1487142,8.01413569 35.260797,7.73866593 C34.8552138,7.90926675 34.9670168,7.63353433 34.7991724,7.73866593 C34.7581733,7.88050495 34.7581733,8.03009258 34.7991724,8.17166894 C34.3097021,8.17166894 34.6034822,7.79100191 34.5475108,7.63353433 L34.4914694,7.63353433 Z M39.8367833,9.75 C40,9.75 39.9455037,9.64290818 40,9.5 L39.7142517,9.57154341 L39.4285714,9.64290818 C39.4285714,9.75 39.6055993,9.7142283 39.8367833,9.75 Z M40.321334,10 C40.4914844,9.8696194 40.371393,9.65764894 40.5714286,9.65764894 C40.5714286,9.3150531 40.361231,9.65764894 40.321334,9.52702357 C40.321334,9.65764894 40.2411896,9.52702357 40.321334,10 Z M44.1719506,4 L43.7142857,4.23743122 L44.0192368,4.5 C44.2467823,4.42208604 44.3462084,4.24305903 44.2479262,4.08741871 L44.2479262,4.02488744 L44.1719506,4 Z M36.9738504,8.95568776 C37.2048805,8.95568776 37.739829,8.7222284 38,8.95568776 C37.7110497,8.7222284 38,8.58884688 38,8.5 C37.6774256,8.5877905 37.3427031,8.64750361 37.0026297,8.67769376 C37.1472495,8.93328144 36.6123009,8.833426 37.0026297,9 L36.9738504,8.95568776 Z M38.3517301,8.82187893 L38.2857143,8.82187893 L38.3517301,8.82187893 C38.2862445,8.98739802 38.2862445,9.16803464 38.3517301,9.33361325 L38.5637627,9.27409542 L38.378375,8.88139677 C38.5691977,8.93162982 38.739606,9.03090556 38.8685223,9.1669038 C38.6994397,9.25778753 38.6098942,9.43288899 38.6432335,9.60721672 C38.8156964,9.60721672 39.1864718,9.41681918 39.2925876,9.75 C39.4466907,9.51538071 39.4712809,9.22969512 39.3588685,8.97674433 C39.2263067,9.39313108 38.8156964,8.57220163 38.3517301,8.78628727 L38.3517301,8.82187893 Z M45.8886075,5 C45.6534519,5.05004003 45.7094547,5.17008607 45.7543129,5.25 C45.7543129,5.16007806 46.2021108,5.14991994 45.8886075,5 Z M22.8298518,9 L22,9.27012776 C22,9.44568377 22.328824,9.55397823 22.1877875,9.60812546 C22.2978915,9.71479754 22.3440944,9.85946056 22.3132403,10 L23.1428571,9.71608193 C23.1428571,9.55397823 22.6261673,9.71608193 22.5793379,9.48637869 C22.5322735,9.25660786 22.8922649,9.13492868 22.8298518,9 Z M41.7432408,3.2438072 L41.9924457,3.5 L42.2857143,3.29267846 L42.1244899,3 C41.934012,3.09749847 41.5235826,3.19493594 41.8165579,3.2438072 L41.7432408,3.2438072 Z M41.1428571,3.05754256 C41.006392,2.9280718 40.7850833,3.05754256 40.444687,3.05754256 C40.444687,3.27329118 40.0869984,3.23004427 40.444687,3.5 L41.1428571,3.05754256 Z" id="Fill-4"></path>
                    <path d="M34.9102547,9.54555866 L34.7256389,9.12372064 C34.3285233,9.29829187 34.4421166,9.00750962 34.2578556,9.12372064 C34.1441912,9.41479397 34.5554971,9.24029551 34.6123293,9.41479397 C34.6691615,9.58936519 34.4989488,9.72042095 34.6123293,9.89491941 C34.782471,9.89491941 34.6123293,10.0839715 34.9526837,10.2001826 C35.3639187,10.0256841 35.4207508,10.2001826 35.5909635,10.2001826 C35.7611052,10.2001826 35.661915,9.72042095 35.8888889,9.83663198 L35.7186762,9.42934763 C35.5626538,9.66213352 35.2506091,9.29829187 34.9668031,9.66213352 L34.9102547,9.54555866 Z M44.166263,6 L44.166263,6.11818182 L44.166263,6 Z M44.8035303,13.7906399 L24.6084656,21.9902776 L26.0265755,22.6286888 L45.2433862,14.8969307 L44.8035303,13.7906399 Z M58.2980965,30.827476 C58.1706736,30.7328233 58.0269737,30.6695899 58.0269737,30.6381706 C57.9858026,30.6523014 57.940642,30.6523014 57.8994709,30.6381706 C57.9952176,30.7957409 58.1706736,30.7328233 58.2980965,30.7957409 C58.0750066,30.7957409 58.2980965,31.1272228 58.0269737,31.0639894 C57.7558508,31.0010718 58.0269737,31.1904562 58.0269737,31.1904562 C58.1370026,31.1929035 58.2423241,31.1466428 58.3140543,31.0639894 L58.6172524,31.0639894 C58.7846496,31.0500955 58.9311421,30.9474695 59,30.7957409 L58.6172524,31.0639894 L58.2980965,30.827476 Z M58.9595321,30.7594427 C58.8643851,30.6512499 58.8241878,30.5041817 58.851189,30.3619816 C58.5669661,30.5811097 58.851189,30.7594427 58.851189,30.8690068 C58.851189,30.9785023 58.9457946,30.8690068 59,30.7594427 L58.9595321,30.7594427 Z M23.3698315,22.3524998 L8.27915088,28.5854351 L8.16530925,28.5854351 C8.1864808,28.4904532 8.1864808,28.3917182 8.16530925,28.2967363 L7.5808462,28.5276231 C7.61228274,28.6429583 7.56609027,28.7655831 7.46693329,28.8306847 C7.52096707,28.8566676 7.58391144,28.8566676 7.63787394,28.8306847 L7.33854959,29.0616438 L7.52403231,29.4800405 C7.3719821,29.5501944 7.21465682,29.608295 7.05369602,29.6531155 C6.9356486,31.0997131 7.01249348,32.5556212 7.2817357,33.9813603 L7.63787394,33.8660252 C7.80888588,34.1112748 7.56658926,34.3997571 7.75178685,34.7028187 C7.75542237,34.8085546 7.7306153,34.9131358 7.68078731,35.0058803 C7.75178685,35.0058803 7.79470022,34.9337056 7.8659849,34.8180817 L7.8659849,34.8902564 C7.8659849,34.8902564 7.97982653,35.0634035 7.56658926,35.1212155 C7.80888588,35.424277 7.68078731,35.597352 7.92301264,35.8857621 C8.15083846,35.6551639 7.7376012,35.4818003 8.2078662,35.3664651 L8.45016281,35.6551639 L8.74948717,35.424277 C8.74948717,35.1212155 8.45016281,35.424277 8.0511112,35.1789552 C8.3362499,34.9480683 8.0511112,34.5874835 8.16530925,34.2987847 L8.0511112,34.2987847 L7.93726958,34.053535 L7.92301264,34.053535 L7.92301264,33.8803879 C8.22212314,33.8803879 8.3362499,34.053535 8.50726184,33.8803879 C8.3176446,33.6300861 8.2544151,33.3047225 8.3362499,33.0002174 C8.14691781,32.9906182 7.96842098,32.9080503 7.83754231,32.7696192 C7.85094383,32.7222004 7.85094383,32.6723277 7.83754231,32.6252698 C7.95145523,32.6252698 8.0227399,32.7405328 8.13658153,32.6252698 C8.16637852,32.5263183 8.16637852,32.4208711 8.13658153,32.3221361 C8.19567652,32.3486964 8.26304054,32.3486964 8.32177911,32.3221361 C8.2078662,32.1490611 8.4930049,32.2068731 8.4930049,31.9038115 C8.25077958,31.6006777 8.37887814,31.4276028 8.25077958,31.3122676 C8.12239588,31.1967159 8.25077958,31.3122676 8.13658153,31.3122676 C8.14527826,31.2742315 8.14527826,31.234752 8.13658153,31.1967159 C8.16110346,31.1366665 8.16110346,31.0692554 8.13658153,31.009206 L8.13658153,29.9271628 L8.32177911,29.8549881 L23.7830688,23.5645296 L23.3698315,22.3524998 Z M7.60436349,32.5714938 L7.75554168,32.5714938 C7.75554168,32.6744142 7.66257612,32.6744142 7.75554168,32.7770776 L7.82539683,32.7770776 C7.82539683,32.9569635 7.82539683,32.9439217 7.61594781,32.9183522 C7.66531211,32.9748235 7.6975619,33.0465852 7.70897158,33.1238718 C7.61594781,32.9569635 7.52292403,32.8026471 7.55773518,32.6485877 L7.60436349,32.5714938 Z M8.09965792,34.504817 C8.11200917,34.6419174 7.99166365,34.7631121 7.82539683,34.781006 L7.9305408,34.6429547 L8.09965792,34.504817 Z M8.1005291,33.4000609 C8.1005291,33.725587 7.78052228,33.6367309 7.55459633,33.6762499 C7.53293607,33.6120623 7.59396151,33.5478748 7.70508806,33.5184205 C7.74294643,33.4493979 7.93091984,33.4493979 8.02509489,33.4493979 L8.1005291,33.4000609 Z M51.8465608,11.5336599 C51.4479821,11.5336599 52.0741845,11.3812108 51.6944953,11.3049387 C51.6944953,11.7047724 51.4668717,11.457483 51.2962963,11.6095512 L51.4479821,11.8573167 L51.8465608,11.5336599 Z M52.9052972,14.0668289 C52.9610209,13.8879017 52.9610209,13.6933781 52.9052972,13.5144509 C52.9052972,13.7722805 52.9052972,13.7722805 52.6719577,13.723097 C52.7685713,13.8204816 52.8475179,13.9370238 52.9052972,14.0668289 Z M51.6088769,12.6184795 C51.8514039,12.4637193 52.180383,12.4637193 52.4229099,12.6184795 C52.6228641,12.5108349 52.7456645,12.4031229 52.6228641,12.2414874 C52.3001864,12.4568441 51.9928011,12.2414874 51.670354,12.1335058 C52.1158321,12.3223051 51.3014917,12.3897094 51.670354,12.6858838 L51.6088769,12.6184795 Z M12.9894994,44.6917274 C13.0504047,44.5684697 13.1799783,44.4848627 13.3280423,44.4733595 L12.8058662,43.8952439 C12.63663,43.99813 12.9189255,44.3191911 12.8058662,44.4218844 C12.6931597,44.5247704 12.39682,44.2677159 12.2275132,44.4218844 L12.7496894,45 C12.8623959,44.8973067 12.9189255,44.6917274 13.0457468,44.7432025 L12.9894994,44.6917274 Z M52.4343774,14.0115221 C52.524736,13.7218688 52.6153775,14.0115221 52.6719577,14.0115221 L52.524736,13.7906399 C52.4343774,13.7906399 52.343736,13.9564914 52.4343774,14.0668289 L52.4343774,14.0115221 Z M49.0952381,9.34100967 L48.8906353,9.09542645 C48.7457057,9.21846364 48.5598427,9.28802509 48.3664326,9.29189303 C48.3664326,9.39018771 48.1491021,9.29189303 48.3664326,9.64780451 C48.5198687,9.29189303 48.7757021,9.54969401 49.0440075,9.34100967 L49.0952381,9.34100967 Z M7.89861867,27.9657006 C7.89861867,27.9657006 8.14301503,27.663837 8.28653228,27.7646259 C8.90474937,26.1979399 8.93336654,24.4591506 9.91080817,22.9070581 C9.66641181,22.9070581 9.60888987,22.7345954 9.60888987,22.5622046 C9.66080342,22.5262598 9.71954771,22.5018174 9.78131189,22.4903151 C10.1984179,22.3178524 10.3132461,22.0878782 10.140824,21.6711352 C10.7300645,21.426855 10.6724706,20.7801378 11.1611914,20.4066004 C10.7876583,19.9323459 11.0463632,19.7885671 10.8738693,19.1993615 C11.0176742,19.113166 11.1038852,18.8977853 11.2187853,19.0412766 C11.2187853,19.515603 10.9887694,19.5731864 11.2187853,19.9899294 C12.2869678,18.0710571 13.7056027,16.3698659 15.4014934,14.9744924 C15.5163935,14.6869347 16.1056339,14.4569604 16.1056339,14.0402175 C16.1056339,14.2128959 16.1056339,14.2128959 16.4075522,14.1553125 C16.9968645,13.4510837 18.4343379,13.1205362 18.7935625,12.3013563 C19.6128187,12.1865489 20.5759518,11.2954796 21.5820106,10.9793099 C21.5600803,10.9009505 21.5084544,10.8338058 21.4382057,10.7925412 L21.5820106,10.6774463 C21.5820106,10.6774463 21.4957996,10.591179 21.4095886,10.6774463 L21.2370946,10.4763716 C21.0646726,10.4763716 20.6478542,10.7063458 20.7051605,10.8931145 C20.3602445,10.591179 19.5266077,11.367369 19.2679028,11.5398317 C19.2679028,11.7122225 19.4403967,11.9565028 19.2679028,12.0140862 C19.0954808,12.0713821 19.2679028,11.5398317 18.9230587,11.7122225 C18.9230587,11.8846134 19.0954808,12.1289655 18.6786624,12.2440604 C18.1613244,11.9997802 17.241189,12.588914 16.7670644,13.0056569 C16.9395583,13.4223999 17.068767,13.1205362 17.1262889,13.3073049 C16.7094705,13.4799833 17.0114607,13.6091686 16.8243706,13.6523741 C16.5800461,13.0632403 16.6519486,13.7242635 16.292724,13.4223999 C16.292724,13.4223999 16.6519486,13.7242635 16.4651461,13.8391428 L16.1345387,13.3505104 C14.898464,13.6523741 14.8695592,14.5288499 13.8634285,14.9026029 C13.8634285,15.0893716 13.7486004,15.2044666 13.8634285,15.3769293 C12.667763,16.4819415 11.6454543,17.7610699 10.830656,19.1707495 C10.8387809,19.1233024 10.8387809,19.0747052 10.830656,19.0269706 C10.6438534,19.0269706 10.830656,19.501297 10.5862596,19.544215 C10.7587535,19.9612455 10.8881779,19.6593818 10.9457717,19.8461505 C10.5289534,20.0185413 10.6438534,19.7312712 10.4714314,19.8461505 C10.4714314,20.0185413 10.8162755,20.1480142 10.6438534,20.2628216 L10.2270351,20.4352843 C10.2270351,20.6076751 10.1122069,20.737148 9.92511675,20.7801378 C10.1694412,21.3695591 10.1122069,21.8149141 9.75269473,21.9586929 C9.86781052,22.2606285 9.75269473,22.3754359 9.63779464,22.5478986 C9.67288303,22.3917548 9.67288303,22.229716 9.63779464,22.0735722 L9.81021667,22.0735722 C9.81021667,21.9011814 9.81021667,21.5992458 9.5802008,21.4844384 C9.16338241,21.6568293 9.39339829,22.188739 9.04855423,22.3754359 C9.04855423,22.5478986 9.46530072,22.9070581 9.2782825,22.9645696 C8.87577269,22.4330193 9.10578857,23.6688702 8.68904208,23.6688702 C8.93336654,24.2580759 8.1716322,24.545346 8.68904208,24.9334051 C8.2722237,25.1058678 8.38733949,24.8185977 8.21462985,24.9334051 L8.38733949,25.335842 C7.97023349,25.5226107 8.21462985,26.0401426 7.85540531,26.2268394 C8.21462985,26.5284874 7.85540531,26.7011658 7.97023349,27.0603253 C8.15732361,26.9884359 8.2722237,26.7011658 8.38733949,26.8735566 L8.38733949,27.0603253 C8.09972977,27.1752046 7.98490159,27.3475954 7.98490159,27.5203457 C7.98490159,27.3475954 7.98490159,27.1179087 7.8697139,27.2902996 C8.09972977,27.6494591 7.69729187,27.7646259 7.8697139,28.1524693 L7.89861867,27.9657006 Z M21.2009767,10.7525606 L21.3068783,11.0287496 C21.2261813,10.9537679 21.1322466,10.9021473 21.031746,10.8781582 L21.2009767,10.8781582 L21.2009767,10.7525606 Z M19.9312169,11.3049387 C19.9312169,11.4521822 19.9312169,11.7097662 19.4159259,11.8573167 C19.2381473,11.5011201 19.7888163,11.5011201 19.9312169,11.3049387 Z M57.8994709,31.1905486 L57.7513447,31.1905486 C57.4545359,31.5588007 57.7513447,31.5588007 57.8994709,31.1905486 Z M57.3492063,36.2036447 C57.3914414,36.3798339 57.4451585,36.5504732 57.5102234,36.7143292 L57.8994709,36.4854594 C57.8021758,36.2146565 57.5605831,36.0907074 57.3492063,36.2036447 Z M16.9325252,6.14938457 C16.8955075,6.20757003 16.8955075,6.27504367 16.9325252,6.33353618 C17.056983,6.26636959 17.1448356,6.16826798 17.1798942,6.05734715 L16.9325252,6.05734715 L16.9325252,6.14938457 Z" id="Fill-5"></path>
                    <path d="M9,26.8431373 L9.21985065,27.0707126 L9.21985065,27.3921569 C9.35533214,27.2848972 9.21985065,27.1779053 9.21985065,26.9503969 L9.21985065,26.8431373 L9.21985065,26.9770445 L9,26.8431373 Z M60,23.2745098 L60,23 C59.9861301,23.0907404 59.9861301,23.1833117 60,23.2745098 Z M58.3932539,37 C58.7941774,36.8004322 58.3932539,36.4509804 58.3932539,36.4509804 C58.3932539,36.4509804 58.1640319,36.4509804 58.3932539,37 Z" id="Fill-6"></path>
                    <path d="M57.150289,36.3591873 C57.3163889,36.4076675 57.4531218,36.521985 57.525952,36.6730366 C57.525952,36.8525181 57.4004961,36.9872601 57.525952,37.1666667 C57.9799271,36.9872601 57.525952,36.49363 57.9799271,36.49363 C57.5883668,36.1794814 58.1050698,36.1794814 57.9799271,36 C57.6354323,36 57.525952,36.1794814 57.150289,36.3591873 Z M10.6934796,43 C10.8586954,42.5468767 10.8586954,42.8750921 10.982659,42.7343949 C10.8724003,42.5468767 10.982659,41.9063135 10.4731688,42.0314559 C10.6383158,41.5939657 10.0187736,41.0156219 10.0187736,40.6874065 C9.79309113,40.3051008 9.58620977,39.908491 9.39923144,39.5 L9,39.9530451 C9.45439521,40.9689573 9.72986973,41.29686 10.0465277,42.1563638 C10.3354316,42.1563638 10.5005786,42.0314559 10.7209582,42.4219689 L10.4319854,42.6720973 L10.6934796,43 Z M9.28323699,40.5032469 L9.56671008,40.375 C9.8811905,40.375 10.0068725,40.904199 10.132948,40.7599815 C9.89685157,41.2252175 9.28323699,40.7599815 9.34627474,40.5032469 L9.28323699,40.5032469 Z" id="Fill-7"></path>
                    <path d="M11.0236704,39.2495631 C11.0236704,39.1765394 11.0236704,39.1326522 10.9055404,39.1326522 C10.7870405,39.1326522 10.5948665,39.0596286 10.4174865,39.1326522 C10.6541164,39.4247467 10.8462904,39.0596286 11.0236704,39.1326522 L11.0236704,39.2495631 Z M9.75205267,38.3445082 C10.0479325,38.3445082 9.6780827,38.6511344 10.1661365,38.8262451 L10.8462904,38.2860163 C10.4174865,37.8042064 10.6541164,37.3808885 10.0479325,37.3372934 C10.4174865,36.7969916 9.87047859,36.140071 9.63384866,35.512506 C9.63384866,35.512506 9.44174865,35.9358239 9.32324876,35.7461816 C9.20504475,35.5561741 9.20504475,35.2643717 9.32324876,35.1476799 C9.57459871,35.4540871 9.32324876,35.4540871 9.44174865,35.6291977 C9.75205267,35.3955952 9.6930986,34.9140774 9.26399882,34.4322675 C9.11317405,34.5084311 8.94585398,34.5486671 8.77624085,34.5489592 C8.89444486,34.7389667 8.89444486,34.7389667 8.77624085,34.8555854 L8.46564095,35.1037928 C8.91352911,35.3513428 9.11894371,35.8793767 8.9536948,36.3591419 C9.03779865,36.433626 9.16517494,36.433626 9.24927879,36.3591419 C8.93897478,36.5927445 9.42665878,37.0160624 9.66336267,37.0160624 C9.13107478,37.1327542 10.2105925,37.4978723 10.2695466,37.9647854 C9.91471263,38.1693246 10.0332125,38.3590399 9.73733264,38.2860163 L9.75205267,38.3445082 Z M9.02766477,35.1476799 L8.83519491,34.8995457 C8.83519491,34.8995457 9.02766477,34.7825618 9.08661883,34.8995457 C9.14586878,35.0162374 9.23455877,35.1183245 9.08661883,35.2058798 L9.02766477,35.1476799 Z M47,4.58020922 L46.7632961,4.22991489 L46.881796,4.11293104 C46.7084104,3.96235632 46.4486279,3.96235632 46.2756121,4.11293104 C46.3937421,4.28840681 46.3937421,4.59474092 46.5119461,4.71165175 C46.6303721,4.8283435 46.822546,4.71165175 47,4.71165175 L47,4.58020922 Z M39.9468156,56.5915789 C39.7928101,56.4183668 39.531918,56.3870397 39.3403358,56.5185552 C39.6509357,56.8833813 39.9468156,56.8833813 39.9468156,56.5915789 Z M40.7304534,56.5915789 C40.5672017,56.6342977 40.408832,56.6930817 40.2571196,56.7666895 C40.1057031,56.8400052 40.4345736,57 40.9225534,57 C40.6119535,56.8833813 40.6119535,56.8833813 40.7304534,56.5915789 Z M4,38.8844449 L4.35483394,38.7678262 C4.26614395,38.6071742 4.14793994,38.8553815 4,38.8844449 Z" id="Fill-8"></path>
                    <path d="M38.841966,57.8887896 C38.7267509,57.8887896 38.5541081,58.0068094 38.4965365,58.2430706 C38.4543653,57.9788185 38.3967217,57.7176683 38.3238937,57.4606539 L37.6765012,57.6377575 L37.561502,57.6377575 C37.4465747,57.5195161 37.3312876,57.6377575 37.0867523,57.4606539 L37.0867523,57.829632 C37.0293966,57.8353926 36.9714652,57.8353926 36.9141095,57.829632 C36.9225293,57.7350241 36.8778394,57.643592 36.7991822,57.5933708 C36.4969314,57.5933708 36.1517177,58.1397479 35.9071824,57.7704744 C35.8335628,57.8561458 35.792471,57.9664109 35.7918953,58.0806641 L35.4900043,58.1986101 C35.4900043,58.0806641 35.4900043,57.9476518 35.6050036,57.9476518 C35.676968,57.6525284 35.4323608,58.0658932 35.3174335,57.9476518 L35.3174335,57.6377575 C35.4323608,57.829632 35.6193245,57.4014963 35.7346116,57.829632 C35.9071824,57.7116122 36.0221817,57.829632 36.2093613,57.7116122 C36.0941462,57.5195161 36.3820041,57.2835503 36.1373968,56.9142769 C35.8495389,57.1652351 36.1373968,57.2243927 35.964826,57.3423387 C35.8495389,57.1652351 35.6626471,57.5933708 35.4900043,57.4606539 C35.5285053,57.4217325 35.5504545,57.3683355 35.5504545,57.3129445 C35.5504545,57.2572581 35.5285053,57.2041565 35.4900043,57.1652351 C33.7519181,57.6992046 31.9336635,57.9043729 30.1239007,57.7704744 L29.6493669,58.1986101 L29.4191525,57.8887896 C28.9443309,58.3169253 28.3258681,57.475351 27.6784756,58.0068094 L27.4482612,57.7116122 C26.8852111,57.8904883 26.2886975,57.9311822 25.7076563,57.829632 C25.0796222,57.6805193 24.4676363,57.4678917 23.880694,57.1949247 C23.5785151,57.1949247 23.2906572,57.1949247 22.9886942,57.0766833 C22.7584798,56.7665675 22.5139445,57.1949247 22.1687309,56.6485476 C20.7300169,56.7665675 19.4784826,55.6151727 18.1549838,55.6151727 C15.8099492,54.0206498 13.5515598,53.1790755 11.4653814,51.1858849 C11.1634904,51.1858849 11.4653814,51.4813037 11.1634904,51.4221461 C10.6886687,50.8169068 10.1275617,50.15251 9.48016917,49.4586451 L9.36524189,49.4586451 C9.30954138,49.4370056 9.24829961,49.4370056 9.1925991,49.4586451 C9.07738396,49.4586451 8.99109855,49.4586451 9.02002827,49.3404037 C9.10573797,49.2765932 9.22188864,49.2765932 9.30759834,49.3404037 C8.24979241,48.1976499 7.27827189,46.9735822 6.40174449,45.6791309 C6.31768998,45.7636207 6.18362015,45.7636207 6.09956563,45.6791309 C6.40174449,45.4280988 6.09956563,45.3689411 6.27213646,45.2509952 C5.56738828,44.7045443 5.50974473,43.9812852 5.09263859,43.7744182 C5.09263859,43.4645978 4.67546048,42.2243558 4.15760406,42.6524915 L4.4452461,42.4015332 C4.21495976,42.1064098 4.04238893,41.9142399 4.10003248,41.6191166 C3.92738968,41.7371364 4.10003248,41.8848458 3.95610351,42.0177842 C4.07837117,42.189201 4.07837117,42.421991 3.95610351,42.5933339 L3.72581717,42.2835134 L3.89845996,42.1651982 C3.66853344,41.8553777 3.59656895,42.1651982 3.48128185,41.9880946 C3.78346072,41.7371364 3.78346072,41.9880946 3.95610351,41.8700748 C3.84110427,41.6929712 3.95610351,41.5599589 4.14299527,41.4419391 C3.78346072,40.6595963 3.66853344,40.172303 3.43824709,39.5964579 C3.35167382,39.6737838 3.2226415,39.6737838 3.13606823,39.5964579 C3.25135533,40.0837512 2.83388937,39.5964579 2.77653367,40.1426134 L2.54631929,39.8327191 C2.66124657,39.7222325 2.72421549,39.5661775 2.71889012,39.4046573 C2.71889012,39.5079061 2.92046264,39.5079061 3.07842468,39.5079061 L2.87714002,39.1830932 C2.94406699,39.284348 3.07504235,39.3163271 3.17939085,39.2569479 C3.00674805,38.9467581 3.00674805,38.9467581 3.17939085,38.8288122 C2.9491045,38.5333934 2.87714002,38.8288122 2.76221274,38.6516348 L3.06410375,38.3415189 C2.12741404,35.8131772 1.64028646,33.133064 1.62567767,30.4281357 C1.74067691,30.4281357 1.62567767,30.2509583 1.62567767,30.1182414 C1.62567767,29.9852291 1.51039056,30.2954188 1.62567767,30.4281357 C1.43871394,30.5463771 1.15085601,30.5463771 1.20849956,30.2509583 C1.3234988,30.4281357 1.51039056,30 1.62567767,30.1329385 C1.74067691,30.2656553 1.43871394,30 1.43871394,30 C0.892791373,30.1713429 0.398035554,30.4811634 0,30.900658 C0.23021438,31.2107739 0,31.5058973 0.474821657,31.8748754 L0.330892692,31.8748754 L0.273249141,32.0964395 C0.618750623,34.2668075 0.863285935,36.2303085 1.43871394,38.2529671 C1.55371318,38.3709131 1.91324774,38.1349473 1.84128326,38.4447678 L1.55371318,38.6811028 C2.07149764,39.3454997 1.95657036,40.2311652 2.64692564,40.7628452 C2.53199836,40.5857416 2.53199836,40.5857416 2.64692564,40.4674264 C2.67420018,40.4541325 2.70600848,40.4541325 2.73321106,40.4674264 C2.73321106,40.1576059 2.73321106,40.1278425 2.9634974,39.9213447 C3.07842468,40.0984483 2.9634974,40.2311652 2.79085461,40.5857416 C3.05597176,40.7622543 3.32979662,40.9247347 3.61088989,41.0726656 C3.32303196,41.3236978 3.02106899,41.0726656 2.84849816,41.0726656 C2.67592733,41.0726656 2.9634974,40.8955621 2.84849816,40.7184585 C2.67592733,40.8366999 2.56064023,40.7184585 2.25846136,40.9547197 C2.90585385,42.0766464 3.20803271,43.169179 3.94171061,44.4094209 C4.11435341,44.2914011 4.24396144,44.1584626 4.41653227,44.2914011 C3.94171061,44.4094209 4.24396144,44.7195368 4.41653227,45.0738178 C4.603496,44.9555764 4.71842328,44.8375566 5.00628121,45.0738178 L4.53153151,45.5019535 C4.89135393,46.2843701 5.78299387,46.4173824 5.42345931,46.9781612 C5.95563666,47.3327376 5.84063742,47.4654545 6.2434946,47.7017156 C6.2434946,48.3070288 7.13542239,49.1782188 7.68192068,49.7835319 C8.15674233,49.6652167 8.27195747,49.7835319 8.27195747,49.5324998 C8.27195747,49.5324998 8.68913558,49.7243743 8.51656475,49.8423941 C8.34392195,49.9606354 8.21438588,49.8423941 8.04174309,49.9606354 C8.68913558,51.082636 9.36524189,51.2597396 10.1275617,52.2931145 C10.3002045,52.1751686 10.4298125,52.2931145 10.6023833,52.1751686 C11.0906623,52.9385307 11.8154166,53.5106092 12.65956,53.7990857 C12.9040953,54.0945045 12.65956,54.0945045 12.7745593,54.286379 C13.3069525,54.6405861 14.0263095,55.187037 14.5154521,55.5560151 C14.6880949,55.4379953 14.6880949,55.1278794 14.8173431,55.304983 C14.4578085,55.8514339 15.2202002,55.7922763 15.3354873,55.9841508 C15.4504146,56.1759514 15.5223791,55.5560151 15.6373784,55.7331187 C15.7526655,55.9102961 15.0476294,55.9841508 15.4648075,56.1612543 C15.8819137,56.3384318 15.9395572,56.0433084 16.0545565,56.1612543 C17.5129167,56.9797121 19.0509416,57.6377575 20.6436596,58.1250508 C20.8882668,58.1766752 21.1252459,58.2612388 21.3486956,58.3760829 L21.2334805,58.4940288 C21.4206601,58.4940288 21.5933029,58.6712063 21.7658737,58.73029 C21.736944,58.6339835 21.736944,58.5312516 21.7658737,58.4348712 L21.9960881,58.4348712 L22.0677647,58.5531865 C23.0769946,58.9545129 24.1390465,59.1985288 25.2185137,59.2764455 C25.1872811,59.1959439 25.1872811,59.1062104 25.2185137,59.0254134 C25.5204047,59.0254134 25.8082626,59.0254134 26.038477,59.1437286 C26.0682703,59.2885577 26.1065554,59.4316142 26.1534763,59.5718643 C26.6858695,59.3946869 26.9304768,59.4535491 27.189333,59.6898841 C27.1244211,59.5972703 27.1244211,59.4726036 27.189333,59.3796944 C27.3619758,59.3796944 27.4769031,59.4980096 27.5921902,59.9261453 C28.2264132,59.7963087 28.8748851,59.7565011 29.5197589,59.8081255 C29.4048316,59.4980096 29.1025808,59.4980096 28.9876535,59.4535491 C28.8723664,59.4094578 28.9876535,59.4535491 28.9876535,59.3356031 C28.9876535,59.2175833 29.1025808,59.3356031 29.2321888,59.4535491 L29.2321888,59.3356031 C29.2321888,59.2175833 29.4048316,59.1437286 29.4767961,59.2175833 C29.4843523,59.2565048 29.4843523,59.2966079 29.4767961,59.3356031 C29.4767961,59.2617484 29.4767961,59.2617484 29.7067226,59.2175833 L29.7786871,59.2175833 C29.8525946,59.3203152 29.8928227,59.4440218 29.8939022,59.5718643 C29.8366185,59.4599006 29.7070104,59.4094578 29.5917233,59.4535491 C29.7643661,59.8816848 29.936937,59.7637388 30.0089015,60 C30.2967594,59.6307265 30.6562939,60 31.0304373,59.8228226 C30.9432883,59.6514797 30.9432883,59.447493 31.0304373,59.2764455 C31.0669952,59.2599759 31.1085907,59.2599759 31.1454365,59.2764455 C31.2604358,59.2764455 31.3180793,59.3946869 31.4476154,59.6898841 L31.8647935,59.5127067 C31.7495784,59.8228226 31.8647935,59.6898841 32.0374363,59.9408424 C32.631647,59.7198691 33.2611204,59.6148477 33.8930405,59.6307265 L33.8930405,58.9666251 L34.1518967,58.9666251 L34.2238612,59.084571 C34.3391483,59.084571 34.4541476,59.084571 34.5117191,58.9666251 C34.5266158,59.0644087 34.5266158,59.163891 34.5117191,59.2617484 C34.4968225,59.3595321 33.9939347,59.6898841 34.2238612,59.6307265 C34.81397,59.3796944 34.9288972,59.8081255 35.245469,59.4535491 C35.1591116,59.236047 35.1591116,58.9922526 35.245469,58.7744551 L35.0728262,58.7744551 C35.186674,58.7522249 35.3039042,58.7522249 35.4180398,58.7744551 C35.5330391,59.0254134 35.8352179,59.3796944 35.6050036,59.6307265 C35.9001299,59.7787313 36.2450557,59.7787313 36.540254,59.6307265 C36.3673953,59.2025908 36.2380751,59.5127067 36.1947525,59.3208322 C36.4769972,59.2784396 36.7524772,59.1991197 37.0147878,59.084571 C36.9284304,59.2080561 36.9284304,59.3745246 37.0147878,59.4980096 C37.1145306,59.3978626 37.2317607,59.3177303 37.3602173,59.2617484 L37.3602173,59.084571 L37.3602173,59.2617484 C37.8347511,59.0107163 38.3672163,58.8336128 38.3672163,58.4793318 L38.5397871,58.8927704 C38.6117516,58.8927704 38.6117516,58.7744551 38.6117516,58.5973516 L38.7843944,58.5973516 C38.5828219,58.2871618 38.9283234,58.1397479 38.8706798,57.9920385 L38.841966,57.8887896 Z M1.68303336,35.7874757 C1.62287105,35.9478881 1.52391989,36.0901323 1.39546329,36.2009143 C1.06457059,36.067902 1.51039056,36.0237369 1.68303336,35.7727786 L1.68303336,35.7874757 Z M1.12221414,36.5257273 C1.29478497,36.4074121 1.42410515,36.2894661 1.59674794,36.4074121 C1.45303487,36.4074121 1.17956984,36.6437471 1.12221414,36.5257273 Z M1.59674794,37.4852475 C1.4817487,37.308144 1.59674794,37.1898287 1.76960663,37.0718828 L2.01414194,37.3673016 C1.87021298,37.5444051 1.87021298,37.2489863 1.59674794,37.4852475 Z M2.63260471,38.7990488 L2.74760395,38.9765216 C2.44564098,38.9765216 2.74760395,39.2863421 2.57496116,39.4046573 C2.57496116,39.0944675 2.46003388,38.917364 2.57496116,38.7990488 L2.63260471,38.7990488 Z M7.86917226,48.5432899 C7.72804991,48.5337627 7.60347939,48.6361991 7.58131433,48.7795511 C7.33670705,48.4694352 7.89781412,48.2184031 7.86917226,48.5285928 L7.86917226,48.5432899 Z M20.8163024,57.12107 C21.1041603,56.8256512 21.291052,56.7077053 21.4060513,56.8848088 C21.2190876,57.2982474 20.9315175,57.2982474 20.8019814,57.1060775 L20.8163024,57.12107 Z M28.8293316,58.5973516 L28.5991172,58.2871618 C28.7141165,58.1986101 29.1169737,58.2871618 28.8293316,58.5973516 Z M29.4191525,59.2025908 L29.4191525,59.084571 C29.4572637,59.0710556 29.4992231,59.0710556 29.5373343,59.084571 C29.4992231,59.0710556 29.4572637,59.0710556 29.4191525,59.084571 L29.4191525,59.2025908 Z M32.4545424,59.2025908 C32.6018537,59.2389273 32.7426882,59.2986758 32.8717205,59.3796944 L32.8717205,59.6160294 C32.512186,59.8081255 32.4256127,59.6160294 32.3969708,59.2025908 L32.4545424,59.2025908 Z M34.1232549,58.2577677 L34.0082556,58.2577677 C33.8930405,58.2577677 34.2528629,57.8443291 34.4254337,58.0215065 C34.297265,58.0044461 34.1738459,58.0768975 34.1232549,58.1986101 L34.1232549,58.2577677 Z M34.5980765,58.7155929 L34.526112,58.6712063 C34.4111128,58.5531865 34.526112,58.4201741 34.6410393,58.4201741 L34.5980765,58.7155929 Z M34.5980765,58.4054771 C34.4254337,58.4054771 34.3102186,58.5234969 34.2528629,58.4793318 L34.2528629,58.4054771 L34.5547539,58.1692159 L34.5547539,58.4054771 L34.5980765,58.4054771 Z M36.6408603,58.4054771 C36.5256452,58.4054771 36.396325,58.4054771 36.3386815,58.2283735 C36.2810379,58.0511961 36.4536807,58.1100583 36.5113243,58.1100583 C36.5688958,58.1100583 36.7991822,58.3463195 36.6408603,58.4054771 Z M37.2593231,58.1100583 L37.1873586,58.1100583 C37.3026457,57.9626443 37.3456085,57.9034867 37.4895375,57.9626443 C37.4015969,58.0044461 37.3231556,58.0647853 37.2593231,58.1397479 L37.2593231,58.1100583 Z M38.698037,57.3721021 L39,57.2537869 C38.9283234,57.1358409 38.8850008,56.9586635 38.7553927,57.0175257 C39,57.2537869 38.6404654,57.2537869 38.7553927,57.3721021 L38.698037,57.3721021 Z" id="Fill-10"></path>
                    <path d="M51.4884134,35.1100156 C51.9578017,35.1100156 52.0717868,34.8774318 51.7871797,33.6571665 L51.7871797,32.9450968 C51.9010937,33.061534 52.0147943,33.1194619 52.1996466,33.3085089 C52.7118682,32.5965118 52.4842537,32.0298069 52.6690348,31.6084669 C52.4984129,31.7245407 52.256568,31.4341018 52.4272611,31.3032734 C52.5103664,31.3864221 52.6429221,31.3864221 52.7260274,31.3032734 L52.4272611,30.8819334 C52.3813682,30.9554153 52.3068723,31.0057115 52.2226998,31.0195939 C52.1384561,31.0335489 52.0522913,31.0096364 51.9864759,30.9546158 C51.9814241,30.9307759 51.9814241,30.9060639 51.9864759,30.8819334 C52.0576276,29.2485411 51.9572325,27.6117329 51.6876384,26 C51.2751716,26.189047 51.4458647,26.5377046 50.9905645,26.5377046 C51.1387736,27.5004561 51.2385284,28.4703304 51.2894019,29.4436208 L14.038389,44.9320282 L14.1520184,45.2951497 C13.8910337,45.0672176 13.6570155,44.8088315 13.4549444,44.5252247 C13.3452284,44.6305415 13.2831841,44.7778688 13.2843225,44.9320282 C13.2854609,45.0858969 13.2843225,44.8156637 13.170622,44.757445 L13.2843225,44.6412985 L13.170622,44.4670061 C13.1141986,44.560403 13.1141986,44.6785119 13.170622,44.7721996 L13,44.8883461 C13.1137005,45.0626386 13.3983076,45.3678321 13.511937,45.2370037 C13.3413151,45.6582711 14.2801627,46.2539762 14.5361668,46.5157057 C14.7067887,46.3993411 14.8346485,46.2831946 15.005555,46.3993411 C15.1762481,46.5157057 14.5361668,46.5157057 14.8346485,46.8206811 C15.005555,46.7045346 15.1192556,46.5880974 15.4180219,46.8206811 C15.3468701,47.4163136 16.1718038,48.0701648 16.6695816,48.4043586 C16.9541887,48.157311 16.6695816,48.0993831 16.8402747,47.9830185 C17.0820484,48.2882121 17.139041,47.9830185 17.2527415,48.157311 C16.7832821,48.578651 17.3666555,48.3316761 17.2527415,48.7532342 C17.2527415,48.7532342 17.4375227,48.3316761 17.5515078,48.5207231 L17.2527415,48.7532342 C17.9069821,49.8574257 18.6752078,49.6538422 19.3861563,50.4530582 C19.5570628,50.3369843 19.6849226,50.4530582 19.8556157,50.3369843 C20.1968596,50.5692047 20.5526185,50.7582517 20.8656151,50.9326168 C20.7410995,51.0240513 20.6074053,51.1018215 20.4673075,51.1651279 C20.9792445,51.876907 21.6335562,51.8334429 21.8894891,52.1238819 C21.9759385,52.0754027 22.0218314,51.9756824 22.0034743,51.876907 C22.0034743,52.0657359 22.0034743,52.298247 22.1171748,52.2403191 C22.1171748,52.0657359 22.4159411,51.876907 22.5296416,52.0657359 C22.6435556,52.2547829 22.3589485,52.0657359 22.4159411,52.3564656 L22.7572562,52.2111008 L22.7572562,52.298247 C22.8022952,52.2917056 22.8422825,52.2656126 22.8667587,52.2264368 C22.8912349,52.187479 22.8981367,52.1395086 22.8854005,52.0949542 L22.7997338,52.0949542 L22.7997338,51.8913708 C22.7997338,51.8334429 22.7997338,51.8913708 22.6861044,51.8913708 L22.6861044,51.7026145 C22.7569715,51.7114091 22.8250638,51.7363391 22.8854005,51.7752969 C22.9456661,51.814182 22.8854005,51.7026145 22.9707115,51.6591504 L23.5538003,51.8334429 C23.7244934,52.2547829 23.8381227,51.9495894 23.8951153,52.1384183 C23.8951153,52.1384183 24.0088159,52.1384183 24.0088159,52.0222718 C24.0088159,51.9061253 24.0088159,52.1384183 24.1227298,52.2547829 C24.2364304,52.3709294 24.3928931,52.3419291 24.5351967,52.2547829 C24.6775002,52.1676367 25.2036676,52.4291481 25.5024339,52.5452219 C25.3317408,52.1384183 25.2036676,52.4291481 25.146675,52.2547829 L25.5591418,52.0657359 C25.7300484,52.487294 25.9149007,52.3709294 25.9716087,52.6034405 C26.0855227,52.6034405 26.0855227,52.487294 26.0855227,52.4291481 C26.0855227,52.3709294 26.0855227,52.4291481 26.1992232,52.4291481 C26.3845736,52.5480565 26.5796717,52.65003 26.782312,52.7343416 C27.0099265,53.0247806 27.5363785,52.6616591 27.7781522,52.9665619 C27.8918527,52.9665619 28.0057667,52.6616591 28.1194673,52.5452219 C28.0057667,52.7922695 28.1194673,52.7343416 28.2900892,52.908634 C28.702556,52.7343416 28.7595486,52.908634 28.9444009,52.908634 L28.9444009,52.7922695 C28.9843882,52.7837656 29.0260832,52.7933597 29.0585995,52.8183625 C29.0914005,52.8433652 29.1119634,52.8813781 29.1150229,52.9231705 C29.2026107,52.8572476 29.3057096,52.8172722 29.4137892,52.8067333 C29.299306,52.9742663 29.3051404,53.1979828 29.4280195,53.3589744 C29.7304146,53.2720462 30.0503129,53.2720462 30.3524234,53.3589744 C30.7648902,53.1846092 30.4663374,53.0537082 30.6511897,53.0103167 C30.8218828,53.4171203 30.949956,53.1263906 30.9925047,53.3007557 C32.3155008,52.9520981 33.9369786,53.0685354 35.25969,52.6469046 C35.5581717,52.5307581 35.8427788,52.4725395 36.1840939,52.3564656 C36.2980079,52.4725395 36.4258676,52.5307581 36.5398527,52.4725395 C36.6534821,52.4146116 36.6534821,52.3564656 36.6534821,52.2255646 C36.6534821,52.0949542 36.7671827,52.2255646 36.8811678,52.2255646 L36.9523196,52.399857 C37.3884088,52.1591328 37.8786445,52.0390615 38.3745012,52.0511994 C39.1282831,51.7462966 39.9818198,51.1503734 41.2191491,50.7001058 C41.5179866,50.3514482 42.3853979,50.2205471 42.3853979,49.755743 C42.3853979,49.755743 42.3853979,49.9301081 42.6700049,49.8718895 C43.9010018,49.093388 44.9968814,48.111303 45.9129605,46.966046 C46.3254273,46.7916809 46.9369056,46.3121949 46.9938982,45.8618545 C46.9938982,45.8618545 46.9938982,46.0506835 47.2926645,45.9780011 C47.9874616,45.13394 48.5798001,44.2069483 49.0564458,43.2174498 C49.0564458,43.0431573 48.6581382,43.3918149 48.7718387,43.1010852 C49.2412981,43.1010852 49.2837757,42.6797451 49.1701464,42.4475248 L49.3549275,42.8688648 C49.5256206,42.7961824 49.3549275,42.2004772 49.9380163,42.1567951 C49.7779248,42.0954511 49.6956734,41.9143265 49.7532351,41.7499188 C50.279616,41.9824299 49.9380163,41.0381398 50.5781688,40.9799212 L50.4074757,40.5585812 C50.9905645,39.8465841 50.9905645,38.7423926 51.630717,38.0303229 C51.3321642,37.2458614 51.9294833,37.0133503 51.630717,36.4466454 L52.0431127,36.272353 C51.744631,35.8802313 52.0431127,35.3425267 51.4600239,35.1100156 L51.4884134,35.1100156 Z M51.9041096,31.0769231 C51.9041096,31.0769231 52.0866057,31.0769231 52.1780822,31.1897154 L51.9041096,31.3589744 L51.9041096,31.0769231 Z M51.8392193,32.2051282 C51.8392193,32.2051282 52.0237609,32.2051282 51.9527287,32.3178923 L51.8392193,32.4871795 L51.8392193,32.2051282 Z M13.8891176,45.7725883 C14.0267051,45.7339236 14.1705848,45.7339236 14.3082562,45.7725883 L14.3082562,45.9278302 L14.4422363,45.9278302 L14.6438356,46.1607902 C14.3082562,46.5688102 14.1571616,46.0056455 13.8219178,45.9278302 L13.8891176,45.7725883 Z M21.5752817,51.7263268 L21.4576346,51.6084697 L21.5752817,51.6084697 L21.5752817,51.7263268 Z M24.5068493,52.5869843 L24.5068493,52.4691272 L24.7808219,52.4691272 L24.5068493,52.5869843 Z M24.2968412,52.2307692 C24.2707014,52.1381403 24.2707014,52.0410782 24.2968412,51.9487179 L24.2968412,52.1769652 C24.2968412,52.2307692 24.2968412,52.1769652 24.1689122,52.1769652 L24.2968412,52.2307692 Z M27.2465753,52.7225491 L27.2465753,52.5772686 C27.2465753,52.5772686 27.2465753,52.4322604 27.2465753,52.5772686 C27.3236532,52.5446009 27.4130351,52.5446009 27.4905197,52.5772686 C27.5674959,52.6098456 27.4905197,52.7044912 27.327619,52.7948718 L27.2465753,52.7225491 Z M37.9315068,51.5500968 C38.0228691,51.5500968 38.1711259,51.3165888 38.2054795,51.4043365 C38.1492697,51.5769166 38.0650407,51.6737015 37.9772165,51.6662677 L37.9315068,51.5500968 Z M40.7434236,50.2564103 L40.9452055,50.5384615 C40.9452055,50.4236854 40.5014872,50.3399171 40.7434236,50.2564103 Z M47.7945205,43.349628 C48.0198447,42.9502185 48.0198447,43.482598 48.0628684,43.6992467 C48.1058922,43.9155623 47.891042,43.5825128 47.7945205,43.349628 Z M49.1643836,41.6295431 C49.4451428,41.7072933 49.3247219,41.6295431 49.5519904,41.5128205 L49.7123288,41.7948718 C49.5921753,41.6295431 49.2179411,41.7462171 49.1643836,41.6295431 Z M49.7123288,41.2307692 C49.938993,41.2307692 49.7123288,40.7277352 50.0147053,40.6666667 L50.260274,41.1089371 L49.7123288,41.2307692 Z M51.0821918,35.8629481 C51.0821918,35.6871157 50.6137425,35.8629481 50.4433908,35.9362726 C49.8742501,38.0956814 48.9782528,40.1487694 47.7888446,42.0193526 L47.7888446,42.1952583 C47.1500436,42.2685829 46.9656321,42.9866504 46.7670186,43.4850376 C45.9009874,44.0862257 45.3473978,45.4493296 44.296955,46.1089575 C44.296955,46.2847898 44.6520022,46.4019625 44.4672357,46.5193551 C44.1834819,46.4019625 43.4595406,47.1936479 43.5446809,47.574569 C43.3743292,47.574569 43.5446809,46.9149412 43.1896337,47.2669725 C42.8348705,47.6187104 42.1818676,47.926307 41.9405775,48.4687622 C41.7702968,48.0436997 41.5289357,48.6446679 41.4154626,48.8938248 C40.4074835,49.0697304 39.5273924,50.1544209 38.1079845,50.4769023 C38.1393707,50.594075 38.0932856,50.7186535 37.9942984,50.7847922 C37.9676699,50.6676929 38.0126189,50.5456075 38.1079845,50.4769023 C37.3660068,50.6665197 36.6636524,50.9945005 36.0354318,51.4441268 L35.8650801,51.4441268 L35.751678,51.1365302 C35.3400363,51.3124359 34.9994039,51.4441268 34.729497,51.3124359 C34.601609,51.4412671 34.5212263,51.61226 34.5023378,51.7961581 L34.3888647,51.7961581 C34.4102386,51.6798653 34.4102386,51.5604196 34.3888647,51.4441268 C33.9744536,51.5022732 33.5542197,51.5022732 33.1398085,51.4441268 C33.1398085,51.6203258 33.4804408,51.75209 33.3101602,51.8691894 C32.955113,51.5615928 32.6144806,51.693357 32.1459603,51.693357 C32.1459603,51.8691894 32.4442,51.9866553 32.316312,52.0453883 L32.2028389,52.0453883 C32.2361423,52.0024201 32.2361423,51.9414141 32.2028389,51.8987392 C31.5640379,51.8987392 31.1951438,52.0745715 30.783502,52.0745715 C30.7124926,52.0745715 30.7124926,52.0745715 30.7124926,52.1917442 L30.5987354,52.1917442 C30.5074883,52.1556685 30.4062288,52.1556685 30.3149817,52.1917442 L29.8606632,52.1917442 C29.2212942,52.2647754 28.5749662,52.2352256 27.9444733,52.1037547 L27.9444733,52.2212206 L27.4191454,52.2212206 C27.220532,52.039889 26.9223633,52.039889 26.7234658,52.2212206 C26.326239,51.7374251 25.7440325,51.9720637 25.1906559,51.6203258 C25.1071488,51.7165276 25.0311687,51.819402 24.9634967,51.9279223 L24.6084494,51.9279223 C24.4949763,51.9279223 24.7222066,51.9279223 24.7787301,51.8107497 C22.6581749,51.3682359 20.6482525,50.4800553 18.8738684,49.2017147 C18.5898306,49.2017147 18.1781889,48.6738511 17.8092948,48.791317 C17.9795754,48.6738511 17.9795754,48.6738511 17.8092948,48.4833538 C16.9857272,48.0583646 16.2617859,46.827025 15.3961097,46.7098523 C15.2013308,46.3489488 14.9466909,46.0267606 14.6438356,45.7572195 L51.0395151,30.5128205 C50.9979036,31.8464479 50.8267708,33.1723028 50.5285311,34.4706611 C50.7415595,35.0862209 51.1387863,35.5699431 51.0253132,35.8629481 L51.0821918,35.8629481 Z M40.2226869,57.8717949 C40.5278513,57.7616439 40.3401482,57.5828979 40.3401482,57.3076923 C40.102524,57.4624954 40.0553046,57.6879576 40.2226869,57.8717949 Z M21.2853667,58.7396617 L21.2853667,59 C21.4394192,58.9143424 21.6129877,58.9143424 21.7671233,59 C21.6175553,58.5441365 21.2853667,59 21.2191781,58.7179487 L21.2853667,58.7396617 Z M52.5121576,48.9087238 L52.1780822,49.0721098 L52.3384678,49.4102564 L52.7260274,49.2584783 C52.6591722,49.0602685 52.6591722,48.6872398 52.5390334,48.9203317 L52.5121576,48.9087238 Z M40.7827612,56.4615385 L40.3972603,56.7054644 L40.6909534,57.025641 C40.9111086,56.8579658 41.1313555,56.7358122 40.6909534,56.4615385 L40.7827612,56.4615385 Z M52.4520548,47.7737115 L52.7630607,48.5641026 C52.9406726,48.5641026 52.8813452,48.2511244 53,48.0123807 C52.7483215,47.8932326 52.8371274,47.5948029 52.4520548,47.7737115 Z M49.1643836,52.2307692 C49.2685216,52.313219 49.1643836,52.6538599 49.4379333,52.4473483 C49.4458235,52.3370195 49.3424028,52.2416627 49.203313,52.2307692 L49.1643836,52.2307692 Z" id="Fill-11"></path>
                    <path d="M50.6532663,50.7820348 C50.7626474,50.979551 50.9919139,51.082827 51.2160804,51.0358562 L51.0335502,50.4833335 L50.6532663,50.7820348 Z M20.5575937,59 C20.579398,58.9616564 20.579398,58.9195973 20.5575937,58.8812537 L20.5575937,59 Z M52.3417085,31.0409149 C52.3417085,31.1746297 52.4941058,31.0409149 52.5958099,31.0409149 C52.6973234,31.0409149 52.4941058,30.9074506 52.3417085,31.0409149 Z M48.2175893,52.5172519 C48.0882742,52.8373638 48.0882742,52.8373638 48.2175893,53.0202521 L48.6867004,52.8373638 L48.6867004,53.0202521 C48.9034933,52.913599 49.0116065,52.678337 48.9455733,52.4564924 L48.2175893,52.4564924 L48.2175893,52.5172519 Z M40.6233269,57.5303297 C41.0378127,57.3987373 40.6233269,56.8550641 40.5226131,56.9870684 C40.6733695,57.1846629 40.5226131,57.3163376 40.6233269,57.5303297 Z M41.5076842,57.5986379 L41.3668342,57.5986379 L41.5076842,58.0929983 C41.6012912,57.7349132 41.5076842,58.2974965 41.6482412,58.0077196 C41.4137842,57.8714443 41.566064,57.7349132 41.5076842,57.5303297 L41.5076842,57.5986379 Z M40.4479294,57.5577971 C40.6112909,57.8167364 40.5210326,58.1433312 40.241206,58.3059032 C40.241206,58.4890163 40.4479294,58.7485664 40.654739,58.6262365 C40.4479294,58.1835733 40.947669,58.0616253 41.0854271,57.7409865 C40.7237043,58.1835733 40.947669,57.3746841 40.4479294,57.5577971 Z M44.6828574,55.3476523 C44.5003498,55.3476523 44.6828574,55.1848391 44.1809045,55.3476523 C44.5461479,55.6326264 44.1809045,55.7953718 44.3027791,56.1209304 L44.7437186,55.9581851 C44.6091392,55.7922499 44.6091392,55.5679491 44.7437186,55.4020139 L44.6828574,55.3476523 Z M27.5762513,2.56375969 C27.7649695,2.56375969 27.5762513,2.39460357 27.5762513,2.28187985 C27.5292191,2.37365304 27.5292191,2.47205704 27.5762513,2.56375969 Z M27.6058164,2.28187985 C27.5928292,2.18829574 27.5928292,2.09302035 27.6058164,2 L27.6058164,2.28187985 Z M55.718593,17.2215117 C55.8539254,17.1086188 56.1928919,17.0524542 55.8539254,16.9396318 C55.718593,17.0524542 55.8539254,17.1086188 55.718593,17.2215117 Z M36.5829146,3.19005426 C36.6284148,3.34712856 36.727024,3.43391877 36.826318,3.40330259 C36.9253076,3.3725533 36.826318,2.9774715 36.5829146,3.19005426 Z M37.4504641,2 L37.1457286,2.3305536 L37.2675161,2.56375969 C37.7555046,2.44715664 37.8773683,2.3499064 37.4352883,2.01945005 L37.4504641,2 Z M55.694874,17.5033915 C55.7937262,17.5033915 55.7937262,17.5033915 55.7937262,17.3042661 C55.7937262,17.1045172 55.6156934,17.3042661 55.694874,17.5033915 Z M0.515828203,29.5998442 C0.640993549,29.2766065 0.18755257,28.7686945 0.515828203,28.5840972 C0.547256354,28.5227444 0.234538437,28.3687851 0.125243526,28.2148257 C0.147524677,28.4141261 0.147524677,28.6156589 0.125243526,28.8150363 C0.312717917,28.7380566 0.515828203,29.1226471 0.390897396,29.4458848 C0.26573205,29.4458848 0.18755257,29.2458916 4.54747351e-13,29.3228713 C0.035728022,29.4341069 0.115783809,29.5264826 0.221717003,29.5787518 C0.327962915,29.63079 0.450782877,29.638642 0.56281407,29.5998442 L0.515828203,29.5998442 Z M53.7487437,46.0824121 C53.7487437,46.5319909 53.7487437,46.6955546 54.0301508,46.3549275 L53.8894179,45.973256 L53.7487437,46.0824121 Z M0.21501259,31.0336241 C0.477367493,30.9277001 0.61364818,30.6948959 0.545313427,30.4698645 C-0.0184725803,30.5915628 -0.173805346,30.911621 0.21501259,31.0336241 Z" id="Fill-12"></path>
                    <path d="M0.234540094,26.4042369 C0.714294461,26.4042369 0.06007735,25.973899 0.656334141,26.2196855 C0.656334141,26.4042369 0.656334141,26.7272595 0.772545673,27.1119019 C0.772545673,27.1119019 1.42676278,27.5422398 1.00518691,27.7423308 C1.12139844,27.4193081 0.830796886,27.2963764 0.772545673,27.1119019 L0.176579775,27.3576884 L0.176579775,27.680711 C0.350969796,27.680711 0.379986317,27.8036428 0.322025998,28.1113566 C0.743601875,27.9268822 0.322025998,27.6037826 0.56913913,27.5578563 L0.743601875,27.9884249 L0.322025998,28.1113566 L0.176579775,27.680711 C0.205523573,28.0491984 0.205523573,28.419686 0.176579775,28.7880964 L0.176579775,28.9725709 L0.176579775,28.8034052 C0.263774785,28.9263369 0.62709945,28.8034052 0.510887918,29.0955026 C0.801489472,29.218742 0.438164807,28.8956424 0.62709945,28.7724799 L0.917991896,28.8956424 C0.743601875,28.8956424 1.10692654,29.3415968 0.62709945,29.2646683 C0.62709945,29.4645285 0.510887918,29.5877679 0.554376339,29.7722424 C0.743601875,29.7722424 0.917991896,30.0949573 1.26684466,29.9721026 C1.09238192,29.5261482 0.975952216,29.8491709 0.917991896,29.649003 C1.09238192,29.649003 0.743601875,29.2031255 0.917991896,29.1418135 C0.917991896,29.1418135 0.917991896,29.326288 1.22306535,29.2646683 C1.23557372,27.3504571 1.5551918,25.4525547 2.16817491,23.6515823 L1.93553367,23.0211534 L2.35710955,22.8366789 C2.10999642,22.2061732 3.06957787,21.8372242 2.76421353,20.975933 L3.1857894,20.7914585 C3.16760863,20.1474903 3.31327302,19.5101379 3.60729256,18.9460214 C3.88742198,18.2885906 4.23343855,17.6647007 4.63966985,17.0850447 C4.75580866,16.7623297 4.88649209,16.5162355 5.00299451,16.2085217 C5.42457039,16.0086615 5.00299451,15.7012553 5.59896041,15.4551611 C5.64783034,15.1999894 5.72593497,14.9521258 5.83160165,14.7168016 C5.48274888,14.4093954 5.59896041,14.1633013 5.83160165,14.0250608 C5.91741492,14.1926879 5.97653881,14.3748546 6.00606439,14.5632524 L6.00606439,14.6554896 L6.00606439,14.5632524 C6.54377908,13.4865615 7.56161175,12.7025065 7.88152071,11.6721265 C9.97485548,9.78045534 11.428445,7.68923171 13.9581185,6.15127767 C14.07433,5.82825501 13.6527541,6.0284229 13.7837284,5.70532331 C14.4959059,5.38230065 15.3100411,5.01327476 16.138721,4.61363134 C16.138721,4.35215146 16.0659978,4.10605727 16.313111,4.16736927 C16.5602968,4.22898897 16.313111,4.41346345 16.313111,4.49039193 C17.7158671,3.72326119 19.1743291,3.07536959 20.6745341,2.55279446 C20.6444268,2.43440154 20.6918422,2.30908506 20.7907457,2.24538828 C20.9796076,2.67564924 21.09611,2.36824306 21.1540703,2.55279446 C21.8665387,1.9992941 22.6079508,2.18376858 22.840592,1.79912621 C23.1456655,1.92236562 24.4251559,1.87605468 24.1925147,1.24562584 L24.3669047,1.67619451 L24.6575062,1.53795404 C24.7476102,1.56834079 24.8441865,1.56834079 24.9339268,1.53795404 C24.8526951,1.54910867 24.7740087,1.57526435 24.7012856,1.61465173 C24.5774381,1.59595811 24.469517,1.51602943 24.410684,1.39948279 L24.7595368,1.21493138 L24.9046921,1.59926604 C24.9947233,1.5686485 25.0912996,1.5686485 25.1811126,1.59926604 C25.1811126,1.41479156 24.8756756,1.47641126 24.8174971,1.27655109 C25.239073,1.0917689 24.9339268,0.953528429 25.1228614,0.907217488 C25.2972515,1.33786308 25.0066499,1.21493138 25.1228614,1.41479156 C25.2972515,1.41479156 25.4137539,1.53795404 25.4717142,1.72250545 C26.314866,1.59926604 26.7512046,1.72250545 27.4198936,1.59926604 C27.3778597,1.4805654 27.4281113,1.34717143 27.5360324,1.29185986 C27.0562781,1.21493138 27.6525349,0.968837195 27.1145293,0.722743009 L27.4633093,0.599811308 L27.6525349,0.784362716 L27.8269249,0.907217488 C27.7397299,0.907217488 27.7104952,1.06107444 27.6525349,1.18400614 L27.9576083,1.18400614 C27.9576083,1.18400614 27.7832183,1.18400614 27.8414695,1.5070288 C28.0158595,1.43010032 28.0158595,1.43010032 28.146543,1.63026821 C28.5684097,1.43010032 28.2630454,1.30716862 28.4519073,1.24562584 L28.5684097,1.6915802 C31.2472383,1.48241168 33.939666,1.77927866 36.5202456,2.56810323 C36.5202456,2.38362875 36.5202456,2.06052916 36.8111381,2.19907734 C36.6366753,2.19907734 36.9272769,2.56810323 36.8111381,2.70665141 C36.6946357,2.84489188 36.9272769,2.70665141 37,2.70665141 C36.9688018,2.11468681 36.8150651,1.53710783 36.5494803,1.01514814 C36.1279044,1.19962262 36.011402,0.753668255 35.5026311,1.19962262 L35.3282411,0.753668255 C33.2204344,0.507574068 31.2867269,0.122931701 29.2223359,0 C29.0479459,0 29.2223359,0.507574068 28.9317344,0.384334654 L28.7718163,0 C28.0013876,0.32302266 27.2017243,0 26.4895469,0.507574068 C26.7218972,0.507574068 26.7218972,0.507574068 26.7801484,0.630505769 C26.8383996,0.753668255 26.7801484,0.630505769 26.6639369,0.630505769 C27.0272616,0.630505769 27.0272616,0.630505769 27.2017243,1.0763832 C27.0272616,1.0763832 26.89636,0.953528429 26.6347022,0.722743009 L26.7218972,0.722743009 L26.6057584,0.722743009 C26.3003213,0.984145962 26.0097198,1.16869737 25.9514686,1.43010032 C25.8861632,1.26816589 25.8861632,1.08484533 25.9514686,0.922833968 C26.0241917,0.847751778 26.1074596,0.785516643 26.1986544,0.738051775 L26.314866,0.738051775 C26.242361,0.538191601 26.4312957,0.415336828 26.242361,0.0306944609 C24.992178,0.353717121 23.9016222,0.353717121 22.4914484,0.738051775 C22.6079508,0.922833968 22.6806739,1.10738538 22.4914484,1.16869737 C22.4914484,0.661431015 22.1425956,0.861291189 21.7792709,0.984145962 C21.851994,1.16869737 21.9682056,1.43010032 21.5466297,1.55333974 L21.3867116,1.01514814 C20.5580317,1.13800291 20.1947071,2.01460286 19.7586593,1.46102557 C19.2206537,1.89167116 19.1624025,1.70688897 18.857329,2.09153134 C18.3192507,1.83005146 17.2145139,2.5221 16.4440853,2.90643466 C16.4440853,3.41400873 16.2114441,3.47562843 16.4440853,3.59856013 C16.4440853,3.59856013 16.1531929,3.98289479 16.0369813,3.78303461 C15.9205516,3.58317444 16.1531929,3.47562843 16.0369813,3.27546054 C15.0347841,3.67364232 14.0629852,4.15175279 13.1295113,4.70586858 C13.2022344,4.89041999 13.0130089,5.01327476 13.1295113,5.21313494 C12.298868,5.46015226 11.574473,6.00342114 11.0795923,6.75108898 C10.6580891,6.95094915 10.7742279,6.62784956 10.5998379,6.75108898 C10.0620505,7.19704334 9.40783338,7.76585247 8.89906249,8.16588053 C8.89906249,8.36566378 9.26238715,8.48890319 9.07352523,8.61183489 C8.66642126,8.04294883 8.47748661,8.87323785 8.30309659,8.93485756 C8.12863385,8.99616955 8.66642126,9.2575725 8.47748661,9.38081192 C8.2883338,9.50366669 8.47748661,8.67337767 8.12863385,9.05771233 C7.77956291,9.44212391 8.12863385,9.5652864 7.88152071,9.6269061 C4.7254104,13.0219904 2.38270808,17.1665119 1.04867533,21.7139848 C1.04867533,21.913845 1.52850242,21.7139848 1.58668091,21.9753877 C1.22306535,22.1599391 1.51395779,22.2831016 1.28131656,22.3444136 C1.28131656,22.1599391 1.16510503,21.9753877 0.975952216,22.0370074 C1.09238192,22.1599391 1.22306535,22.4060333 1.09238192,22.467653 C1.03929405,22.5039633 0.970861598,22.5039633 0.917991896,22.467653 C0.931372949,22.5541976 0.931372949,22.6425115 0.917991896,22.729056 C0.917991896,22.9136074 0.612627551,23.0980819 0.685350663,23.2979421 L0.859740684,23.6669679 C0.859740684,23.6669679 0.438164807,23.8514424 0.554376339,24.0516103 C0.63364453,24.274549 0.63364453,24.5203355 0.554376339,24.7436589 C0.263774785,25.1126847 0.438164807,25.0663738 0.322025998,25.312468 C0.252939042,25.4621708 0.147563253,25.5892566 0.0165889293,25.6814939 C-0.0706060813,25.973899 0.219995472,26.0968307 0.103856663,26.3429249 L0.234540094,26.4042369 Z" id="路径"></path>
                </g>
                <text id="已过期" transform="translate(274.160141, 32.753404) rotate(-24.000000) translate(-274.160141, -32.753404) " font-family="PingFangSC-Regular, PingFang SC" font-size="12" font-weight="normal" line-spacing="24" letter-spacing="0.6" fill="#FFFFFF">
                    <tspan x="255.160141" y="33.7534044">已过期</tspan>
                </text>
            </g>
        </g>
    </g>
</svg>