<?xml version="1.0" encoding="UTF-8"?>
<svg width="20px" height="20px" viewBox="0 0 20 20" version="1.1" xmlns="http://www.w3.org/2000/svg" xmlns:xlink="http://www.w3.org/1999/xlink">
    <!-- Generator: Sketch 59.1 (86144) - https://sketch.com -->
    <title>地址图标</title>
    <desc>Created with Sketch.</desc>
    <g id="页面1" stroke="none" stroke-width="1" fill="none" fill-rule="evenodd">
        <g id="订单详情" transform="translate(-8.000000, -84.000000)">
            <g id="收货地址" transform="translate(0.000000, 65.000000)">
                <g id="地址图标" transform="translate(8.000000, 19.000000)">
                    <circle id="椭圆形" fill="#EB4D50" cx="10" cy="10" r="10"></circle>
                    <path d="M12.9809926,16.8 L6.86581886,16.8 C6.68122326,16.8 6.53162393,16.6511163 6.53162393,16.4674229 C6.53162393,16.2837918 6.68122326,16.1349081 6.86581886,16.1349081 L12.980382,16.1349081 C13.1649149,16.1349081 13.3145299,16.2837918 13.3145299,16.4674229 C13.3145299,16.6511163 13.1649149,16.8 12.980382,16.8 L12.9809926,16.8 Z M12.7450848,8.12357987 C12.6082626,8.12418423 12.4848283,8.04170996 12.4336883,7.9154042 C12.2320878,7.41575944 11.8844894,6.98786868 11.435848,6.68700045 C11.2828665,6.58414524 11.2426247,6.37737526 11.3459224,6.22515703 C11.4492985,6.0728609 11.657131,6.03281577 11.8101125,6.13568656 C12.3693484,6.5101942 12.8028796,7.04301254 13.054524,7.66531693 C13.0961124,7.76787608 13.083758,7.88417835 13.0215476,7.97578353 C12.9593998,8.06738871 12.8555541,8.12229883 12.7444115,8.12223651 L12.7450848,8.12357987 Z" id="Fill-1" fill="#FFFFFF"></path>
                    <path d="M9.92387781,12.2679728 C8.05447479,12.2679728 6.53901509,10.7618546 6.53901509,8.90395565 C6.53901509,7.04605665 8.05447479,5.53992285 9.92387781,5.53992285 C10.0436177,5.53992285 10.1542809,5.60344317 10.2140802,5.7064803 C10.273958,5.80950183 10.273958,5.93649564 10.2140802,6.03951716 C10.1542809,6.14261672 10.0436177,6.20607461 9.92387781,6.20607461 C8.42503251,6.20607461 7.20996688,7.41366292 7.20996688,8.90328455 C7.20996688,10.3928906 8.42503251,11.6004789 9.92387781,11.6004789 C11.4227074,11.6004789 12.637773,10.3928906 12.637773,8.90328455 C12.637773,8.71934095 12.7878209,8.57023208 12.9728877,8.57023208 C13.1580174,8.57023208 13.3080653,8.71934095 13.3080653,8.90328455 C13.3069503,10.7605749 11.7926684,12.2660844 9.92387781,12.2679728 Z" id="Fill-2" fill="#FFFFFF"></path>
                    <path d="M9.92387781,15.1489879 C9.69353748,15.1495321 9.47803705,15.0358355 9.34947172,14.84593 L8.34271427,13.5383011 C6.06073071,12.7695336 4.67402478,10.4720803 5.06600221,8.1092806 C5.45797963,5.74646533 7.51331321,4.01293817 9.92288848,4.01293817 C12.3324166,4.01293817 14.3877502,5.74646533 14.7797276,8.1092806 C15.1716894,10.4720803 13.785062,12.7695336 11.5029999,13.5383011 L10.4976086,14.84593 C10.3691532,15.0356482 10.1540297,15.1493605 9.92387781,15.1489879 Z M9.92387781,4.67860117 C7.8221087,4.67543789 6.03324942,6.19858327 5.71390112,8.26314959 C5.39461563,10.3277159 6.64066446,12.3144972 8.64635897,12.9387755 L8.74758435,12.9700518 L9.90442105,14.4708792 C9.90859821,14.4775902 9.91596319,14.4817261 9.92387781,14.4817261 C9.93179242,14.4817261 9.9391417,14.4775902 9.94331886,14.4708792 L9.95938363,14.4488734 L11.0988208,12.9667587 L11.2013809,12.9387755 C13.2070912,12.3144972 14.45314,10.3277159 14.1338545,8.26314959 C13.814569,6.19858327 12.0256469,4.67543789 9.92387781,4.67860117 Z" id="Fill-4" fill="#FFFFFF"></path>
                </g>
            </g>
        </g>
    </g>
</svg>