<?xml version="1.0" encoding="UTF-8"?>
<svg width="375px" height="4px" viewBox="0 0 375 4" version="1.1" xmlns="http://www.w3.org/2000/svg" xmlns:xlink="http://www.w3.org/1999/xlink">
    <!-- Generator: Sketch 59.1 (86144) - https://sketch.com -->
    <title>编组</title>
    <desc>Created with Sketch.</desc>
    <g id="页面1" stroke="none" stroke-width="1" fill="none" fill-rule="evenodd">
        <g id="订单结算" transform="translate(0.000000, -148.000000)">
            <g id="编组" transform="translate(0.000000, 148.000000)">
                <polygon id="矩形" fill="#BFD0D8" points="4 0 25 0 21 4 0 4"></polygon>
                <polygon id="矩形备份-2" fill="#BFD0D8" points="219.84 0 240 0 236.16 4 216 4"></polygon>
                <polygon id="矩形备份" fill="#BFD0D8" points="112 0 133 0 129 4 108 4"></polygon>
                <polygon id="矩形备份-3" fill="#BFD0D8" points="327.84 0 348 0 344.16 4 324 4"></polygon>
                <polygon id="矩形备份-28" fill="#BFD0D8" points="57 0 78 0 74 4 53 4"></polygon>
                <polygon id="矩形备份-33" fill="#BFD0D8" points="273 0 294 0 290 4 269 4"></polygon>
                <polygon id="矩形备份-30" fill="#BFD0D8" points="165 0 186 0 182 4 161 4"></polygon>
                <polygon id="矩形备份-27" fill="#E7CBC2" points="30.84 0 51 0 47.16 4 27 4"></polygon>
                <polygon id="矩形备份-35" fill="#E7CBC2" points="246 0 267 0 263 4 242 4"></polygon>
                <polygon id="矩形备份-31" fill="#E7CBC2" points="138.84 0 159 0 155.16 4 135 4"></polygon>
                <polygon id="矩形备份-36" fill="#E7CBC2" points="354 0 375 0 371 4 350 4"></polygon>
                <polygon id="矩形备份-29" fill="#E7CBC2" points="84 0 105 0 101 4 80 4"></polygon>
                <polygon id="矩形备份-37" fill="#E7CBC2" points="300 0 321 0 317 4 296 4"></polygon>
                <polygon id="矩形备份-32" fill="#E7CBC2" points="192 0 213 0 209 4 188 4"></polygon>
            </g>
        </g>
    </g>
</svg>