<?xml version="1.0" encoding="UTF-8"?>
<svg width="13px" height="16px" viewBox="0 0 13 16" version="1.1" xmlns="http://www.w3.org/2000/svg" xmlns:xlink="http://www.w3.org/1999/xlink">
    <!-- Generator: Sketch 59.1 (86144) - https://sketch.com -->
    <title>编组 2备份</title>
    <desc>Created with Sketch.</desc>
    <g id="页面1" stroke="none" stroke-width="1" fill="none" fill-rule="evenodd">
        <g id="订单结算备份-2" transform="translate(-15.000000, -87.000000)" fill="#333333">
            <g id="编组-2备份" transform="translate(15.000000, 87.000000)">
                <path d="M9.97624079,16 L2.33227358,16 C2.10152907,16 1.91452991,15.8138953 1.91452991,15.5842786 C1.91452991,15.3547398 2.10152907,15.1686351 2.33227358,15.1686351 L9.97547745,15.1686351 C10.2061437,15.1686351 10.3931624,15.3547398 10.3931624,15.5842786 C10.3931624,15.8138953 10.2061437,16 9.97547745,16 L9.97624079,16 Z M9.681356,5.15447484 C9.51032831,5.15523028 9.35603541,5.05213745 9.29211043,4.89425525 C9.04010979,4.2696993 8.60561176,3.73483585 8.04481002,3.35875056 C7.85358313,3.23018155 7.80328087,2.97171908 7.93240306,2.78144629 C8.06162311,2.59107612 8.32141375,2.54101971 8.51264065,2.6696082 C9.21168553,3.13774275 9.75359945,3.80376567 10.068155,4.58164616 C10.1201405,4.70984511 10.1046975,4.85522294 10.0269345,4.96972941 C9.94924981,5.08423588 9.81944257,5.15287354 9.68051437,5.15279563 L9.681356,5.15447484 Z" id="Fill-1"></path>
                <path d="M6.15484726,10.334966 C3.81809349,10.334966 1.92376886,8.45231831 1.92376886,6.12994456 C1.92376886,3.80757081 3.81809349,1.92490357 6.15484726,1.92490357 C6.30452214,1.92490357 6.44285118,2.00430396 6.51760029,2.13310038 C6.59244755,2.26187728 6.59244755,2.42061954 6.51760029,2.54939645 C6.44285118,2.6782709 6.30452214,2.75759326 6.15484726,2.75759326 C4.28129064,2.75759326 2.76245859,4.26707864 2.76245859,6.12910568 C2.76245859,7.99111321 4.28129064,9.5005986 6.15484726,9.5005986 C8.02838425,9.5005986 9.54721629,7.99111321 9.54721629,6.12910568 C9.54721629,5.89917619 9.7347761,5.7127901 9.96610968,5.7127901 C10.1975218,5.7127901 10.3850816,5.89917619 10.3850816,6.12910568 C10.3836879,8.45071859 8.49083548,10.3326055 6.15484726,10.334966 Z" id="Fill-2"></path>
                <path d="M6.15484726,13.9362348 C5.86692185,13.9369152 5.59754631,13.7947943 5.43683965,13.5574125 L4.17839284,11.9228764 C1.32591338,10.961917 -0.407469022,8.09010034 0.0825027604,5.13660075 C0.572474543,2.18308166 3.14164152,0.0161727093 6.1536106,0.0161727093 C9.16552079,0.0161727093 11.7346878,2.18308166 12.2246596,5.13660075 C12.7146117,8.09010034 10.9813274,10.961917 8.12874985,11.9228764 L6.8720108,13.5574125 C6.71144154,13.7945602 6.44253711,13.9367006 6.15484726,13.9362348 Z M6.15484726,0.848251463 C3.52763587,0.844297364 1.29156177,2.74822908 0.892376396,5.32893699 C0.493269537,7.9096449 2.05083057,10.3931215 4.55794872,11.1734693 L4.68448043,11.2125647 L6.13052632,13.088599 C6.13574776,13.0969878 6.14495399,13.1021576 6.15484726,13.1021576 C6.16474052,13.1021576 6.17392713,13.0969878 6.17914857,13.088599 L6.19922954,13.0610918 L7.62352595,11.2084484 L7.75172617,11.1734693 C10.2588639,10.3931215 11.816425,7.9096449 11.4173181,5.32893699 C11.0182113,2.74822908 8.78205864,0.844297364 6.15484726,0.848251463 Z" id="Fill-4"></path>
            </g>
        </g>
    </g>
</svg>