<?xml version="1.0" encoding="UTF-8"?>
<svg width="21px" height="21px" viewBox="0 0 21 21" version="1.1" xmlns="http://www.w3.org/2000/svg" xmlns:xlink="http://www.w3.org/1999/xlink">
    <!-- Generator: Sketch 59.1 (86144) - https://sketch.com -->
    <title>已完成</title>
    <desc>Created with Sketch.</desc>
    <g id="页面1" stroke="none" stroke-width="1" fill="none" fill-rule="evenodd">
        <g id="我的-未授权" transform="translate(-305.000000, -185.000000)" fill="#EB405D" fill-rule="nonzero">
            <g id="my-order-group" transform="translate(8.000000, 135.000000)">
                <g id="已完成" transform="translate(297.000000, 50.000000)">
                    <path d="M16.423,1.902 L18.4814189,1.90268456 C19.8723928,1.90268456 21,3.02272389 21,4.40436242 L21,18.4983221 C21,19.8799607 19.8723928,21 18.4814189,21 L2.51858108,21 C1.12760716,21 -2.48689958e-14,19.8799607 -2.48689958e-14,18.4983221 L-2.48689958e-14,4.40436242 C-2.48689958e-14,3.02272389 1.12760716,1.90268456 2.51858108,1.90268456 L4.29224674,1.90277279 L4.29224674,1.90277279 L4.29222973,0.744932432 C4.29222973,0.33351761 4.62574734,7.55756767e-17 5.03716216,0 C5.44857698,-7.55756767e-17 5.78209459,0.33351761 5.78209459,0.744932432 L5.782,1.902 L14.9341386,1.90277279 L14.9341386,1.90277279 L14.9341216,0.744932432 C14.9341216,0.33351761 15.2676392,7.55756767e-17 15.6790541,0 C16.0904689,-7.55756767e-17 16.4239865,0.33351761 16.4239865,0.744932432 L16.423,1.902 Z M18.4814189,3.38255034 L2.51858108,3.38255034 C1.9504368,3.38255034 1.48986486,3.84003119 1.48986486,4.40436242 L1.48986486,18.4983221 C1.48986486,19.0626534 1.9504368,19.5201342 2.51858108,19.5201342 L18.4814189,19.5201342 C19.0495632,19.5201342 19.5101351,19.0626534 19.5101351,18.4983221 L19.5101351,4.40436242 C19.5101351,3.84003119 19.0495632,3.38255034 18.4814189,3.38255034 Z" id="形状结合"></path>
                    <polygon id="路径-9" stroke="#EB405D" stroke-width="0.72" stroke-linejoin="round" points="4.64466175 11.2218837 4 11.8925488 9.95811581 17 18 7.56805251 17.2529271 7 9.84926617 15.6834055"></polygon>
                </g>
            </g>
        </g>
    </g>
</svg>