<?xml version="1.0" encoding="UTF-8"?>
<svg width="24px" height="22px" viewBox="0 0 24 22" version="1.1" xmlns="http://www.w3.org/2000/svg" xmlns:xlink="http://www.w3.org/1999/xlink">
    <!-- Generator: Sketch 59.1 (86144) - https://sketch.com -->
    <title>编组 3</title>
    <desc>Created with Sketch.</desc>
    <g id="页面1" stroke="none" stroke-width="1" fill="none" fill-rule="evenodd">
        <g id="我的-未授权" transform="translate(-135.000000, -184.000000)" fill="#EB405D" stroke="#FFFFFF" stroke-width="0.6">
            <g id="my-order-group" transform="translate(8.000000, 135.000000)">
                <g id="编组-3" transform="translate(128.000000, 50.000000)">
                    <path d="M3.84192319,16.4208772 L3.4195837,16.4208772 C1.53391967,16.4208772 0,14.8910526 0,13.0102924 L0,3.76116959 C0,1.68883041 1.69352096,3.12638804e-13 3.77138669,3.12638804e-13 L14.7757256,3.12638804e-13 L14.7757256,1.83842105 L3.77619466,1.83842105 C2.71140428,1.83842105 1.84837291,2.69918129 1.84837291,3.76116959 L1.84837291,13.0102924 C1.84837291,13.875848 2.55655233,14.5823977 3.42439167,14.5823977 L3.84192319,14.5823977 L3.84192319,16.4208772 Z M8.33081208,16.8793567 L13.2794488,16.8793567 L13.2794488,15.0408772 L8.33081208,15.0408772 L8.33081208,16.8793567 Z" id="Fill-3"></path>
                    <path d="M19.07253,16.8793567 L18.0404573,16.8793567 L18.0404573,15.0408772 L19.07253,15.0408772 C19.4009381,15.0408772 19.7057754,14.8864327 19.8888303,14.6290058 C20.3015538,14.0535673 20.4282029,13.3799415 20.2685429,12.6222222 L15.4466139,2.41865497 C15.2823805,2.06777778 14.9211961,1.83842105 14.5318089,1.83842105 L14.1238933,1.83842105 L14.1238933,3.12638804e-13 L14.5318089,3.12638804e-13 C15.6296101,3.12638804e-13 16.6426268,0.640760234 17.1116974,1.63263158 L22.0417473,12.1121053 C22.4311346,13.7730409 21.9011434,14.9753216 21.385107,15.6957895 C20.8596892,16.4395906 19.9918499,16.8793567 19.07253,16.8793567 Z" id="Fill-4"></path>
                    <path d="M18.2068602,11.4245029 L11.7289944,11.4245029 C9.6745236,11.4245029 8,9.75421053 8,7.7051462 L8,6.74134503 C8,4.97304094 9.44479625,3.53204678 11.2177661,3.53204678 L14.8670185,3.53204678 L14.8670185,5.37076023 L11.2177661,5.37076023 C10.457813,5.37076023 9.83869833,5.98818713 9.83869833,6.74134503 L9.83869833,7.7051462 C9.83869833,8.74380117 10.6877748,9.58584795 11.7243624,9.58584795 L18.2022867,9.58584795 L18.2022867,11.4245029 L18.2068602,11.4245029 Z M6.08853709,19.9483626 C3.88865435,19.9483626 2.10143653,18.1659064 2.10143653,15.9717544 C2.10143653,13.7776608 3.88865435,11.9951462 6.08853709,11.9951462 C8.28871299,11.9951462 10.0756376,13.7776608 10.0756376,15.9717544 C10.0756376,18.1659064 8.28871299,19.9483626 6.08853709,19.9483626 Z M6.08853709,13.8384211 C4.90647904,13.8384211 3.94500147,14.7976023 3.94500147,15.9765497 C3.94500147,17.1554971 4.90647904,18.1145029 6.08853709,18.1145029 C7.27059513,18.1145029 8.23236588,17.1554971 8.23236588,15.9765497 C8.23236588,14.7976023 7.27059513,13.8384211 6.08853709,13.8384211 Z M15.4466139,19.9483626 C13.2466725,19.9483626 11.4595133,18.1659064 11.4595133,15.9717544 C11.4595133,13.7776608 13.2466725,11.9951462 15.4466139,11.9951462 C17.6464966,11.9951462 19.4337145,13.7776608 19.4337145,15.9717544 C19.4337145,18.1659064 17.6464966,19.9483626 15.4466139,19.9483626 Z M15.4466139,13.8384211 C14.2645558,13.8384211 13.3030196,14.7976023 13.3030196,15.9765497 C13.3030196,17.1554971 14.2645558,18.1145029 15.4466139,18.1145029 C16.6286719,18.1145029 17.5901495,17.1554971 17.5901495,15.9765497 C17.5901495,14.7976023 16.6286719,13.8384211 15.4466139,13.8384211 Z" id="Fill-5"></path>
                </g>
            </g>
        </g>
    </g>
</svg>