<?xml version="1.0" encoding="UTF-8"?>
<svg width="20px" height="21px" viewBox="0 0 20 21" version="1.1" xmlns="http://www.w3.org/2000/svg" xmlns:xlink="http://www.w3.org/1999/xlink">
    <!-- Generator: Sketch 59.1 (86144) - https://sketch.com -->
    <title>编组 17</title>
    <desc>Created with Sketch.</desc>
    <g id="页面1" stroke="none" stroke-width="1" fill="none" fill-rule="evenodd">
        <g id="我的-未授权" transform="translate(-221.000000, -184.000000)" fill="#EB405D" stroke="#EB405D" stroke-width="0.2">
            <g id="my-order-group" transform="translate(8.000000, 135.000000)">
                <g id="编组-17" transform="translate(214.000000, 50.000000)">
                    <path d="M13.599735,9.9504022 L8.1593847,9.9504022 C7.99750776,9.9504022 7.84799335,9.86429829 7.76704324,9.72446944 C7.68620953,9.58466381 7.68620953,9.41236308 7.76704324,9.27253423 C7.84799335,9.13272861 7.99750776,9.04653178 8.1593847,9.04653178 L13.5985477,9.04653178 C15.6010443,9.04462714 17.2238415,7.42551589 17.2258437,5.42768215 C17.2258437,5.26599633 17.3123115,5.11664425 17.452653,5.03581296 C17.5929712,4.95495844 17.7658603,4.95495844 17.9061785,5.03581296 C18.04652,5.11664425 18.1329878,5.26599633 18.1329878,5.42768215 C18.130357,7.9244401 16.1023204,9.94775428 13.599735,9.9504022 Z" id="Fill-1"></path>
                    <path d="M15.2267927,18.9981883 L3.17311863,18.9981883 C1.42108537,18.9948203 0.00200221729,17.5779499 -5.68434189e-14,15.8299963 L-5.68434189e-14,3.16572983 C0.00200221729,1.41814792 1.42145787,0.00199755501 3.17311863,1.70530257e-13 L14.9943492,1.70530257e-13 C16.7274545,0.00127750611 18.1321729,1.40226039 18.1341752,3.13126039 L18.1341752,5.42768215 C18.1341752,5.58936797 18.047684,5.73869682 17.9073659,5.81955134 C17.7670477,5.90038264 17.5941585,5.90038264 17.4538404,5.81955134 C17.3134989,5.73869682 17.2270078,5.58936797 17.2270078,5.42768215 L17.2270078,3.13126039 C17.2257506,1.90183496 16.2267373,0.905682152 14.9943492,0.905055012 L3.17311863,0.905055012 C1.92217517,0.906332518 0.908447894,1.91772249 0.907167406,3.16572983 L0.907167406,15.828835 C0.907167406,17.0763081 1.92510865,18.0907641 3.17311863,18.0907641 L15.2267927,18.0907641 C16.3305033,18.0894169 17.2250987,17.1975086 17.2270078,16.0963912 L17.2270078,14.0188178 C17.2270078,13.857132 17.3134989,13.707687 17.4538404,13.6269487 C17.5941585,13.5460941 17.7670477,13.5460941 17.9073659,13.6269487 C18.047684,13.707687 18.1341752,13.857132 18.1341752,14.0188178 L18.1341752,16.0963912 C18.1321729,17.6977335 16.8318725,18.9955636 15.2267927,18.9981883 Z" id="Fill-2"></path>
                    <path d="M9.96405765,12.5322653 L7.72667295,10.298813 C7.51185366,10.087676 7.39099889,9.7993313 7.39099889,9.49846699 C7.39099889,9.19757946 7.51185366,8.90932763 7.72667295,8.69812103 L9.96405765,6.46592298 C10.0487328,6.38072494 10.1639534,6.33283007 10.2841098,6.33283007 C10.4043359,6.33283007 10.5195565,6.38072494 10.6042317,6.46592298 C10.7809157,6.64275306 10.7809157,6.92893765 10.6042317,7.10576773 L8.36801109,9.33678117 C8.27979712,9.4256956 8.27979712,9.56886919 8.36801109,9.65787653 L10.6053958,11.8912359 C10.7736497,12.0558987 11.1843704,12.4705002 10.8807587,12.7840908 C10.521781,13.154867 10.0497339,12.6166504 9.96405765,12.5322653 Z" id="Fill-3"></path>
                </g>
            </g>
        </g>
    </g>
</svg>