<?xml version="1.0" encoding="UTF-8"?>
<svg width="22px" height="23px" viewBox="0 0 22 23" version="1.1" xmlns="http://www.w3.org/2000/svg" xmlns:xlink="http://www.w3.org/1999/xlink">
    <!-- Generator: Sketch 59.1 (86144) - https://sketch.com -->
    <title>编组 9</title>
    <desc>Created with Sketch.</desc>
    <g id="页面1" stroke="none" stroke-width="1" fill="none" fill-rule="evenodd">
        <g id="我的-未授权" transform="translate(-51.000000, -184.000000)">
            <g id="my-order-group" transform="translate(8.000000, 135.000000)">
                <g id="编组-9" transform="translate(44.000000, 50.000000)">
                    <path d="M19.9837634,6.92786992 C19.9837634,5.96076423 19.232043,5.16958699 18.3101075,5.16958699 L1.67365591,5.16958699 C0.754659498,5.16958699 0,5.96076423 0,6.92786992 L0,19.2416813 C0,20.208787 0.75172043,20.9999642 1.67365591,20.9999642 L18.3101075,20.9999642 C19.2291039,20.9999642 19.9837634,20.208787 19.9837634,19.2416813 L19.9837634,14.7316813 L14.2758781,14.7316813 C13.4125806,14.7316813 12.7079211,13.9902634 12.7079211,13.0847577 C12.7079211,12.1792878 13.4125806,11.4378341 14.2758781,11.4378341 L19.9837634,11.4378341 L19.9837634,6.92786992 Z" id="Fill-1" stroke="#EB405D" stroke-width="1.2"></path>
                    <path d="M13.7113892,13.0847756 C13.7113892,13.4706901 14.0248422,13.7834233 14.4114027,13.7834233 C14.7980717,13.7834233 15.1113892,13.4706901 15.1113892,13.0847756 C15.1113892,12.8352064 14.9779783,12.6045349 14.7613959,12.4797502 C14.5449221,12.3549385 14.2779919,12.3549385 14.0613824,12.4797502 C13.8448,12.6045349 13.7113892,12.8352064 13.7113892,13.0847756 Z" id="Fill-2" fill="#EB405D"></path>
                    <path d="M10.8978408,0.961469919 C10.2137548,0.27857561 9.09214185,0.27857561 8.40511676,0.961469919 L4.19153253,5.16958699 L15.1113892,5.16958699 L10.8978408,0.961469919 Z" id="Fill-4" stroke="#EB405D" stroke-width="1.2"></path>
                </g>
            </g>
        </g>
    </g>
</svg>